<svg width="477" height="355" viewBox="0 0 477 355" fill="none" xmlns="http://www.w3.org/2000/svg">
<path d="M430.823 11.8074H0.183594V216.172H430.823V11.8074Z" fill="#E6E6E6"/>
<path d="M418.509 29.332H12.498V199.84H418.509V29.332Z" fill="white"/>
<path d="M430.639 0H0V18.2965H430.639V0Z" fill="#5DB075"/>
<path d="M13.5955 14.1501C15.4682 14.1501 16.9863 12.6318 16.9863 10.7589C16.9863 8.88596 15.4682 7.36768 13.5955 7.36768C11.7227 7.36768 10.2046 8.88596 10.2046 10.7589C10.2046 12.6318 11.7227 14.1501 13.5955 14.1501Z" fill="white"/>
<path d="M26.4661 14.1501C28.3388 14.1501 29.857 12.6318 29.857 10.7589C29.857 8.88596 28.3388 7.36768 26.4661 7.36768C24.5933 7.36768 23.0752 8.88596 23.0752 10.7589C23.0752 12.6318 24.5933 14.1501 26.4661 14.1501Z" fill="white"/>
<path d="M39.3372 14.1501C41.2099 14.1501 42.728 12.6318 42.728 10.7589C42.728 8.88596 41.2099 7.36768 39.3372 7.36768C37.4644 7.36768 35.9463 8.88596 35.9463 10.7589C35.9463 12.6318 37.4644 14.1501 39.3372 14.1501Z" fill="white"/>
<path d="M303.635 55.2554H246.454V59.5537H303.635V55.2554Z" fill="#E6E6E6"/>
<path d="M334.755 67.8738H246.454V72.1721H334.755V67.8738Z" fill="#5DB075"/>
<path d="M319.335 79.8911H247.372V84.1894H319.335V79.8911Z" fill="#E6E6E6"/>
<path d="M288.465 93.0769H246.454V97.3752H288.465V93.0769Z" fill="#E6E6E6"/>
<path d="M309.859 105.957H246.454V110.255H309.859V105.957Z" fill="#5DB075"/>
<path d="M227.393 53.9033H220.391V60.9058H227.393V53.9033Z" fill="#E6E6E6"/>
<path d="M227.393 66.5217H220.391V73.5242H227.393V66.5217Z" fill="#5DB075"/>
<path d="M227.393 78.5391H220.391V85.5415H227.393V78.5391Z" fill="#E6E6E6"/>
<path d="M227.393 91.7249H220.391V98.7273H227.393V91.7249Z" fill="#E6E6E6"/>
<path d="M227.393 104.604H220.391V111.607H227.393V104.604Z" fill="#5DB075"/>
<path d="M303.635 118.917H246.454V123.215H303.635V118.917Z" fill="#E6E6E6"/>
<path d="M334.755 131.535H246.454V135.833H334.755V131.535Z" fill="#5DB075"/>
<path d="M319.335 143.552H247.372V147.851H319.335V143.552Z" fill="#E6E6E6"/>
<path d="M288.465 156.738H246.454V161.036H288.465V156.738Z" fill="#E6E6E6"/>
<path d="M309.859 169.618H246.454V173.916H309.859V169.618Z" fill="#E6E6E6"/>
<path d="M227.393 117.565H220.391V124.567H227.393V117.565Z" fill="#E6E6E6"/>
<path d="M227.393 130.183H220.391V137.186H227.393V130.183Z" fill="#5DB075"/>
<path d="M227.393 142.2H220.391V149.203H227.393V142.2Z" fill="#E6E6E6"/>
<path d="M227.393 155.386H220.391V162.388H227.393V155.386Z" fill="#E6E6E6"/>
<path d="M227.393 168.266H220.391V175.268H227.393V168.266Z" fill="#E6E6E6"/>
<path d="M122.742 152.633H65.5605V156.931H122.742V152.633Z" fill="#3F3D56"/>
<path d="M129.873 163.802H57.9097V168.1H129.873V163.802Z" fill="#3F3D56"/>
<path d="M131.316 98.4116C131.314 104.872 129.636 111.221 126.447 116.839C123.258 122.457 118.667 127.152 113.122 130.465C107.576 133.778 101.266 135.596 94.8084 135.742C88.3505 135.888 81.9652 134.356 76.2761 131.296L76.2688 131.289C70.4576 128.158 65.5802 123.542 62.1335 117.912C58.6869 112.282 56.7942 105.839 56.6483 99.2392C56.5024 92.6393 58.1085 86.1188 61.303 80.3419C64.4975 74.5651 69.1662 69.7384 74.8334 66.3537C80.5005 62.969 86.9636 61.1472 93.564 61.0741C100.164 61.0009 106.666 62.679 112.407 65.9372C118.148 69.1955 122.922 73.9176 126.244 79.6222C129.566 85.3268 131.316 91.8102 131.316 98.4116Z" fill="#3F3D56"/>
<path d="M94.1707 96.5991C99.7762 96.5991 104.32 92.0545 104.32 86.4485C104.32 80.8424 99.7762 76.2979 94.1707 76.2979C88.5652 76.2979 84.021 80.8424 84.021 86.4485C84.021 92.0545 88.5652 96.5991 94.1707 96.5991Z" fill="white"/>
<path d="M111.501 117.573C100.155 121.556 87.7822 121.508 76.4667 117.437L76.4595 117.432L84.021 102.504H104.32L111.501 117.573Z" fill="white"/>
<path d="M401.563 347.318H394.06L390.49 318.371L401.565 318.372L401.563 347.318Z" fill="#FFB7B7"/>
<path d="M403.477 354.592L379.282 354.592V354.286C379.282 351.788 380.274 349.392 382.04 347.626C383.806 345.86 386.202 344.867 388.699 344.867H388.7L403.478 344.868L403.477 354.592Z" fill="#2F2E41"/>
<path d="M419.891 347.318H427.395L430.965 318.371L419.89 318.372L419.891 347.318Z" fill="#FFB7B7"/>
<path d="M417.977 344.868L432.755 344.867H432.756C435.253 344.867 437.649 345.86 439.415 347.626C441.181 349.392 442.173 351.788 442.173 354.286V354.592L417.977 354.592L417.977 344.868Z" fill="#2F2E41"/>
<path d="M399.896 121.112C403.119 114.624 400.473 106.752 393.986 103.529C387.499 100.305 379.628 102.952 376.405 109.439C373.182 115.927 375.828 123.799 382.315 127.022C388.802 130.246 396.673 127.599 399.896 121.112Z" fill="#FFB7B7"/>
<path d="M378.493 205.51C378.493 205.51 374.351 222.769 376.422 231.053C378.493 239.338 384.705 295.947 384.705 295.947L388.847 340.82L405.414 342.201L403.343 289.734L405.414 244.17L417.149 288.353V340.976L434.719 341.667L435.096 273.165C435.096 273.165 436.477 219.317 427.503 212.414C418.529 205.51 417.149 204.13 417.149 204.13L378.493 205.51Z" fill="#2F2E41"/>
<path d="M403.502 129.571L419.22 137.855L421.291 209.652C421.291 209.652 412.317 204.129 398.511 211.033C384.705 217.937 375.731 213.104 375.731 213.104L384.015 182.038L380.564 140.617L385.5 136.136L403.502 129.571Z" fill="#CBCBCB"/>
<path d="M385.502 134.829L382.634 137.165C382.634 137.165 364.687 146.14 363.997 152.353L376.422 186.18C376.422 186.18 379.873 193.774 377.112 196.536C374.351 199.297 371.59 206.201 372.28 209.652C372.97 213.104 368.138 227.602 373.661 227.602C379.183 227.602 392.299 194.465 391.608 181.348C390.918 168.231 390.44 133.874 385.502 134.829Z" fill="#2F2E41"/>
<path d="M397.568 130.349L403.891 129.297C403.891 129.297 427.361 135.51 430.812 145.865L421.148 170.028C421.148 170.028 428.051 214.211 425.98 214.211H423.909C423.909 214.211 429.431 218.353 425.98 219.733C422.529 221.114 414.245 232.16 412.174 227.327C410.103 222.495 397.678 165.195 399.059 152.769C400.439 140.342 396.342 131.651 397.568 130.349Z" fill="#2F2E41"/>
<path d="M400.312 102.432L400.926 101.196L397.835 99.6598C397.835 99.6598 394.425 94.1111 388.255 95.6704C382.085 97.2297 379.309 98.1629 379.309 98.1629L376.226 99.7144L377.773 101.254L374.997 102.187L376.852 103.109L374.694 104.349L375.855 110.708C375.855 110.708 377.785 105.885 381.494 107.728C385.203 109.571 391.988 106.775 391.988 106.775L397.882 118.184C397.882 118.184 399.098 114.185 401.266 115.251C401.266 115.251 406.805 106.429 400.312 102.432Z" fill="#2F2E41"/>
<path d="M419.512 223.572C419.171 222.739 419.017 221.841 419.06 220.943C419.103 220.044 419.343 219.165 419.762 218.369C420.182 217.573 420.771 216.879 421.487 216.335C422.204 215.791 423.032 215.411 423.911 215.221L426.568 193.509L435.227 200.873L431.376 220.362C431.596 221.861 431.259 223.389 430.429 224.656C429.598 225.923 428.332 226.841 426.869 227.237C425.407 227.633 423.85 227.478 422.494 226.802C421.138 226.127 420.077 224.977 419.512 223.572Z" fill="#FFB7B7"/>
<path d="M382.48 222.078C382.731 221.213 382.789 220.305 382.651 219.416C382.513 218.526 382.181 217.678 381.68 216.931C381.178 216.184 380.519 215.556 379.749 215.091C378.978 214.626 378.115 214.336 377.22 214.241L372.276 192.933L364.448 201.173L370.343 220.145C370.283 221.658 370.78 223.142 371.74 224.314C372.7 225.485 374.057 226.264 375.553 226.503C377.049 226.741 378.581 226.422 379.857 225.606C381.134 224.791 382.067 223.535 382.48 222.078Z" fill="#FFB7B7"/>
<path d="M419.845 140.239C419.845 140.239 428.819 136.788 431.58 147.143C434.342 157.498 437.793 178.209 437.793 178.209C437.965 189.725 437.353 189.725 437.793 200.991L435.722 211.346L423.987 209.965L424.499 183.604L418.465 156.808L419.845 140.239Z" fill="#2F2E41"/>
<path d="M370.209 148.211L365.954 148.666C365.954 148.666 361.926 151.662 361.926 158.566C361.926 165.47 361.235 186.18 361.235 186.18C361.235 186.18 360.844 186.665 363.996 204.129C365.533 212.642 368.189 216.659 368.189 216.659L376.758 208.701L375.731 188.251L378.493 177.206L370.209 148.211Z" fill="#2F2E41"/>
<path d="M476.388 355H339.284C339.122 355 338.966 354.935 338.851 354.821C338.736 354.706 338.672 354.55 338.672 354.388C338.672 354.225 338.736 354.07 338.851 353.955C338.966 353.84 339.122 353.776 339.284 353.776H476.388C476.55 353.776 476.706 353.84 476.821 353.955C476.936 354.07 477 354.225 477 354.388C477 354.55 476.936 354.706 476.821 354.821C476.706 354.935 476.55 355 476.388 355Z" fill="#CBCBCB"/>
<path d="M191.163 355H118.326C118.164 355 118.008 354.935 117.893 354.821C117.778 354.706 117.714 354.55 117.714 354.388C117.714 354.225 117.778 354.07 117.893 353.955C118.008 353.84 118.164 353.776 118.326 353.776H191.163C191.325 353.776 191.481 353.84 191.595 353.955C191.71 354.07 191.775 354.225 191.775 354.388C191.775 354.55 191.71 354.706 191.595 354.821C191.481 354.935 191.325 355 191.163 355Z" fill="#CBCBCB"/>
<path d="M158.775 328.962C146.833 337.865 143.448 353.529 143.448 353.529C143.448 353.529 159.426 354.759 171.368 345.856C183.31 336.953 186.694 321.289 186.694 321.289C186.694 321.289 170.717 320.059 158.775 328.962Z" fill="#F2F2F2"/>
<path d="M163.749 333.142C158.01 346.888 143.635 353.972 143.635 353.972C143.635 353.972 138.567 338.768 144.306 325.022C150.045 311.276 164.42 304.193 164.42 304.193C164.42 304.193 169.489 319.396 163.749 333.142Z" fill="#F2F2F2"/>
</svg>
