<svg width="490" height="330" viewBox="0 0 490 330" fill="none" xmlns="http://www.w3.org/2000/svg">
<g clip-path="url(#clip0_1641_749)">
<path d="M489.827 28.5801C488.177 41.6372 476.602 51.9763 473.856 64.8723C473.506 66.5639 473.289 68.2773 473.208 69.9984C472.814 77.4048 474.388 84.9639 473.577 92.3826C472.064 106.295 462.983 117.167 451.452 126.589C442.731 133.698 432.607 139.952 423.295 146.003C399.587 161.423 377.352 180.891 367.614 206.245C361.124 223.152 360.627 241.525 355.862 258.923C351.098 276.322 340.246 294.125 321.906 299.673C302.222 305.629 280.533 295.699 260.277 299.623C238.538 303.836 223.122 322.965 201.672 328.368C174.42 335.234 147.26 318.364 119.285 314.849C105.851 313.159 92.1785 314.593 78.6743 313.51C63.6524 312.29 49.1075 307.986 36.0852 300.908C31.6489 298.483 27.1637 295.505 25.1008 291.101C23.3263 287.297 23.5969 282.96 24.1426 278.841C26.1833 263.558 31.3472 246.944 23.2242 233.511C15.7312 221.119 -2.42676 212.255 0.266106 198.264C1.88981 189.846 10.7625 184.588 19.023 180.816C36.0231 173.038 54.1323 166.95 69.3269 156.445C80.1959 148.919 89.5566 138.419 93.5494 126.609C95.1809 121.89 95.8505 116.927 95.5236 111.979C94.9646 104.172 92.0632 95.4063 97.1206 89.1565C99.3122 86.4468 102.671 84.7822 106.047 83.5099C118.779 78.7183 132.922 78.4416 146.16 75.0379C150.698 73.8773 155.059 72.1825 159.136 69.9943C167.211 65.6406 173.71 59.2256 175.28 50.8527C176.199 45.9455 175.382 40.588 178.013 36.2508C182.45 28.8982 191.22 25.825 201.016 24.8253C213.14 23.5861 226.871 25.5234 236.063 26.4776L236.981 26.5685C248.786 27.7127 260.494 25.2797 271.997 21.6117C284.419 17.6834 296.561 12.3383 308.375 8.53806C309.485 8.18007 310.591 7.83722 311.694 7.50952C320.318 4.95072 329.148 3.03763 338.099 1.78853C350.723 0.0192723 363.519 -0.440669 376.252 0.417142C382.709 0.850368 389.135 1.62821 395.497 2.74685C397.366 3.0773 399.232 3.43116 401.095 3.80843C411.929 5.96878 422.705 8.60828 433.756 8.76524C434.55 8.76524 435.348 8.76524 436.143 8.76524C449.323 8.55458 462.801 5.43592 475.307 9.2031C481.016 10.9256 486.446 14.3127 488.736 19.4513C490.009 22.3139 490.213 25.5069 489.827 28.5801Z" fill="#5DB075"/>
<path opacity="0.2" d="M473.227 69.9943H461.838C461.669 67.2528 460.639 64.6177 458.878 62.4153C457.116 60.2128 454.7 58.5394 451.928 57.6022C453.997 56.5414 455.629 54.8699 456.566 52.8508C457.503 50.8317 457.693 48.5797 457.104 46.4494C456.516 44.3191 455.184 42.4314 453.317 41.0836C451.45 39.7357 449.155 39.0042 446.792 39.0042C444.43 39.0042 442.135 39.7357 440.268 41.0836C438.401 42.4314 437.069 44.3191 436.481 46.4494C435.892 48.5797 436.082 50.8317 437.019 52.8508C437.956 54.8699 439.588 56.5414 441.657 57.6022C438.885 58.5394 436.469 60.2128 434.707 62.4153C432.946 64.6177 431.917 67.2528 431.747 69.9943H431.649C431.398 67.3282 430.335 64.7843 428.584 62.6621C426.833 60.5398 424.467 58.9276 421.765 58.0153C423.338 57.2092 424.666 56.0459 425.626 54.6335C426.586 53.2211 427.148 51.6056 427.257 49.9372C427.367 48.2687 427.022 46.6015 426.254 45.0905C425.486 43.5795 424.321 42.2738 422.866 41.2949C421.41 40.3159 419.713 39.6955 417.931 39.4913C416.149 39.287 414.341 39.5056 412.674 40.1268C411.007 40.7479 409.536 41.7513 408.398 43.0438C407.259 44.3363 406.49 45.8758 406.162 47.5192C404.857 46.5278 403.383 45.7473 401.801 45.2102C403.871 44.1494 405.502 42.4778 406.44 40.4587C407.377 38.4397 407.566 36.1877 406.978 34.0574C406.39 31.9271 405.057 30.0394 403.191 28.6915C401.324 27.3436 399.028 26.6121 396.666 26.6121C394.304 26.6121 392.008 27.3436 390.142 28.6915C388.275 30.0394 386.942 31.9271 386.354 34.0574C385.766 36.1877 385.955 38.4397 386.893 40.4587C387.83 42.4778 389.462 44.1494 391.531 45.2102C388.615 46.1939 386.095 47.9908 384.315 50.3561C382.535 52.7215 381.582 55.5402 381.585 58.4284V69.9943H376.705V60.9068C376.708 58.0187 375.754 55.1999 373.974 52.8345C372.195 50.4692 369.675 48.6723 366.758 47.6886C368.828 46.6278 370.46 44.9562 371.397 42.9371C372.334 40.9181 372.523 38.6661 371.935 36.5358C371.347 34.4055 370.015 32.5178 368.148 31.1699C366.281 29.822 363.986 29.0905 361.623 29.0905C359.261 29.0905 356.966 29.822 355.099 31.1699C353.232 32.5178 351.9 34.4055 351.311 36.5358C350.723 38.6661 350.913 40.9181 351.85 42.9371C352.787 44.9562 354.419 46.6278 356.488 47.6886C354.56 48.3426 352.794 49.3552 351.299 50.6647C349.805 51.9741 348.612 53.5531 347.793 55.3056C346.01 52.9444 343.49 51.1505 340.575 50.167C342.644 49.1062 344.276 47.4346 345.213 45.4156C346.151 43.3965 346.34 41.1445 345.752 39.0142C345.164 36.8839 343.831 34.9962 341.964 33.6483C340.098 32.3005 337.802 31.5689 335.44 31.5689C333.078 31.5689 330.782 32.3005 328.915 33.6483C327.049 34.9962 325.716 36.8839 325.128 39.0142C324.54 41.1445 324.729 43.3965 325.666 45.4156C326.604 47.4346 328.235 49.1062 330.305 50.167C327.089 51.2564 324.365 53.3284 322.577 56.045V54.2977C322.58 51.4096 321.626 48.5908 319.846 46.2255C318.067 43.8601 315.547 42.0632 312.63 41.0795C314.7 40.0187 316.332 38.3471 317.269 36.3281C318.206 34.309 318.395 32.057 317.807 29.9267C317.219 27.7964 315.887 25.9087 314.02 24.5608C312.153 23.213 309.858 22.4814 307.495 22.4814C305.133 22.4814 302.838 23.213 300.971 24.5608C299.104 25.9087 297.772 27.7964 297.183 29.9267C296.595 32.057 296.785 34.309 297.722 36.3281C298.659 38.3471 300.291 40.0187 302.36 41.0795C299.444 42.0632 296.924 43.8601 295.144 46.2255C293.364 48.5908 292.411 51.4096 292.414 54.2977V69.9943H287.09C286.261 68.2837 285.073 66.7448 283.596 65.468C282.118 64.1911 280.382 63.2021 278.488 62.5591C280.558 61.4982 282.189 59.8267 283.127 57.8076C284.064 55.7885 284.253 53.5366 283.665 51.4062C283.077 49.2759 281.744 47.3882 279.878 46.0404C278.011 44.6925 275.715 43.961 273.353 43.961C270.991 43.961 268.695 44.6925 266.829 46.0404C264.962 47.3882 263.629 49.2759 263.041 51.4062C262.453 53.5366 262.642 55.7885 263.58 57.8076C264.517 59.8267 266.149 61.4982 268.218 62.5591C267.166 62.9149 266.16 63.379 265.219 63.9428C264.844 61.4047 263.731 59.0103 262 57.019C260.268 55.0277 257.985 53.5152 255.397 52.6454C257.466 51.5846 259.098 49.913 260.035 47.894C260.973 45.8749 261.162 43.6229 260.574 41.4926C259.986 39.3623 258.653 37.4746 256.786 36.1267C254.92 34.7789 252.624 34.0473 250.262 34.0473C247.9 34.0473 245.604 34.7789 243.737 36.1267C241.871 37.4746 240.538 39.3623 239.95 41.4926C239.362 43.6229 239.551 45.8749 240.488 47.894C241.426 49.913 243.057 51.5846 245.127 52.6454C242.905 53.4012 240.904 54.6321 239.286 56.2392C237.668 57.8463 236.477 59.7846 235.81 61.8981C234.146 60.149 232.038 58.8144 229.679 58.0153C231.749 56.9545 233.381 55.2829 234.318 53.2638C235.255 51.2448 235.444 48.9928 234.856 46.8625C234.268 44.7322 232.936 42.8445 231.069 41.4966C229.202 40.1487 226.907 39.4172 224.544 39.4172C222.182 39.4172 219.887 40.1487 218.02 41.4966C216.153 42.8445 214.821 44.7322 214.232 46.8625C213.644 48.9928 213.834 51.2448 214.771 53.2638C215.708 55.2829 217.34 56.9545 219.409 58.0153C217.782 58.5683 216.269 59.3788 214.937 60.4111C214.127 58.6231 212.928 57.0103 211.417 55.674C209.905 54.3376 208.113 53.3065 206.153 52.6454C208.223 51.5846 209.855 49.913 210.792 47.894C211.729 45.8749 211.918 43.6229 211.33 41.4926C210.742 39.3623 209.41 37.4746 207.543 36.1267C205.676 34.7789 203.381 34.0473 201.018 34.0473C198.656 34.0473 196.361 34.7789 194.494 36.1267C192.627 37.4746 191.295 39.3623 190.706 41.4926C190.118 43.6229 190.308 45.8749 191.245 47.894C192.182 49.913 193.814 51.5846 195.883 52.6454C192.967 53.6291 190.447 55.426 188.667 57.7914C186.887 60.1567 185.934 62.9755 185.937 65.8636V69.9943H159.141C155.063 72.1738 150.702 73.8603 146.165 75.013C132.927 78.4167 118.784 78.6935 106.051 83.4851C102.675 84.7573 99.3171 86.422 97.1255 89.1317C92.0681 95.3814 94.9694 104.147 95.5284 111.954C95.8539 116.903 95.1828 121.865 93.5498 126.585H451.471C463.005 117.183 472.082 106.291 473.595 92.3784C474.407 84.9639 472.832 77.4047 473.227 69.9943Z" fill="black"/>
<path opacity="0.05" d="M342.602 214.184C342.602 214.184 342.757 219.409 337.766 220.426C332.775 221.442 339.794 224.49 342.602 223.763C345.41 223.036 356.949 213.602 356.949 213.602C356.949 213.602 352.894 207.794 350.246 207.794C350.228 207.798 345.397 215.345 342.602 214.184Z" fill="black"/>
<path opacity="0.05" d="M319.976 211.135C319.976 211.135 320.287 215.927 312.648 218.686C312.648 218.686 304.693 219.413 310.154 223.04C315.616 226.667 332.141 222.024 332.141 222.024C332.141 222.024 331.83 217.377 329.958 213.601C329.958 213.606 320.917 213.023 319.976 211.135Z" fill="black"/>
<path d="M379.596 110.839C377.187 108.191 372.055 118.051 372.055 118.051L353.364 122.041C352.165 121.698 351.105 121.028 350.321 120.116C351.888 120.171 353.442 119.826 354.816 119.121C356.189 118.415 357.33 117.374 358.116 116.109L353.298 115.857C352.81 115.861 352.325 115.78 351.869 115.618C350.946 115.225 350.538 114.271 350.041 113.449C348.709 111.196 346.536 109.476 343.932 108.616C342.207 108.046 340.281 107.848 338.8 106.857C337.73 106.142 337.003 105.089 336.138 104.168C332.034 99.756 325.238 98.5333 318.965 97.7733C317.856 97.637 316.591 97.5502 315.757 98.2359C315.185 98.7027 314.959 99.4338 314.462 99.9708C313.614 100.892 312.181 101.078 310.89 101.305C309.265 101.538 307.711 102.089 306.33 102.92C305.648 103.337 305.069 103.884 304.63 104.525C304.192 105.166 303.905 105.886 303.788 106.638C303.539 108.93 305.336 111.124 305.003 113.408C304.901 114.11 304.6 114.779 304.56 115.473C304.563 116.141 304.677 116.804 304.897 117.439C305.438 119.377 305.855 121.393 305.487 123.363C305.119 125.333 303.823 127.254 301.796 127.985C304.4 128.52 307.124 128.17 309.475 126.998C311.756 125.783 313.433 123.54 313.512 121.124C313.512 121.066 313.512 121.008 313.512 120.951L313.783 121.05C313.823 121.186 313.863 121.331 313.898 121.483L314.302 121.591C314.455 122.454 314.455 123.334 314.302 124.197L311.494 126.287C311.494 126.287 311.494 126.44 311.529 126.7L311.494 126.725C311.494 126.725 311.494 126.849 311.525 127.068L306.033 130.257C302.481 132.798 299.849 136.291 298.491 140.266L293.509 147.486C293.509 147.486 290.297 150.282 288.531 150.724L273.594 162.794C273.594 162.794 268.421 165.417 268.443 168.036C268.443 168.088 268.443 168.142 268.443 168.197C268.443 168.25 268.443 168.302 268.443 168.354C268.443 168.404 268.455 168.453 268.479 168.503C268.479 168.552 268.51 168.598 268.528 168.647V168.672C268.528 168.718 268.563 168.763 268.585 168.809V168.838L268.656 168.97V169.003L268.736 169.127L268.763 169.164L268.852 169.284L268.887 169.325L268.989 169.441L269.033 169.486L269.144 169.593L269.198 169.643L269.317 169.746L269.379 169.8L269.513 169.903L269.584 169.957L269.73 170.056L269.805 170.11L269.974 170.217L270.045 170.263L270.311 170.411C276.078 173.501 277.538 165.554 277.538 165.554L294.884 154.954C294.884 154.954 309.178 142.884 309.178 140.237L312.283 141.476L312.23 141.996C312.23 141.996 312.23 142.112 312.23 142.314V142.438C312.23 142.438 312.071 148.634 320.42 150.241C320.42 150.241 328.055 157.375 328.285 159.643C328.285 159.688 328.285 159.729 328.285 159.775C328.285 159.82 328.285 159.795 328.285 159.808C328.152 161.543 329.949 164.942 330.504 165.979L327.465 168.346L327.496 168.759L327.465 168.784L327.58 170.254C324.142 173.703 319.151 178.821 318.632 179.97C317.829 181.738 317.829 185.563 319.754 189.536L321.844 207.05V212.152L320.881 211.739V212.895C320.416 212.728 320.023 212.425 319.759 212.032C319.759 212.032 319.759 212.086 319.759 212.181C319.732 213.036 319.24 217.179 312.217 219.678C312.217 219.678 307.559 220.091 307.679 221.884C307.63 222.487 308.144 223.259 309.644 224.242C315.265 227.923 332.269 223.214 332.269 223.214C332.269 223.214 332.269 223.164 332.269 223.069C332.269 223.069 331.95 218.36 330.02 214.531C330.02 214.531 329.576 214.502 328.898 214.44V213.354L328.197 213.242C328.176 211.179 328.395 209.12 328.849 207.1C329.916 202.419 330.225 197.615 329.767 192.849C330.562 193.778 331.454 194.632 332.429 195.398L342.566 210.367L343.764 212.66C343.32 212.957 342.877 213.218 342.513 213.428L344.549 215.184C344.094 215.355 343.585 215.355 343.13 215.184C343.13 215.184 343.289 220.483 338.152 221.512C336.102 221.925 336.022 222.66 336.843 223.354C337.935 224.457 341.47 225.506 343.289 225.044C346.182 224.308 358.067 214.742 358.067 214.742C357.013 213.286 355.818 211.924 354.495 210.673C353.333 209.591 352.06 208.711 351 208.711C351 208.711 350.756 209.087 350.343 209.661L349.074 208.566L348.946 208.678C348.839 208.352 348.742 208.021 348.657 207.695C348.657 207.695 346.195 197.19 338.653 189.235C338.653 189.235 337.167 188.091 339.465 184.311C339.465 184.311 343.183 180.205 346.426 175.752C351.142 176.607 355.995 176.256 359.677 173.092L359.628 172.819L359.837 172.65L358.231 163.377C358.231 163.377 358.954 154.62 347.229 147.552C347.229 147.552 340.885 140.266 338.635 130.992H338.507L338.635 129.385C340.082 130.414 355.494 128.501 355.494 128.501L375.901 120.554C377.059 119.963 380.284 115.87 380.271 112.904C380.332 112.161 380.091 111.424 379.596 110.839Z" fill="url(#paint0_linear_1641_749)"/>
<path d="M349.563 120.417C350.089 121.041 350.751 121.554 351.505 121.923C352.258 122.293 353.087 122.51 353.937 122.561C352.633 123.688 351.111 124.574 349.452 125.172C344.652 126.927 338.84 126.411 334.705 123.487C333.734 122.797 332.802 121.975 331.6 121.706C330.571 121.471 329.488 121.706 328.424 121.653C327.093 121.58 325.821 121.116 324.791 120.327C323.761 119.539 323.026 118.467 322.692 117.266C322.386 116.055 322.51 114.787 322.288 113.548C322.252 113.338 322.203 113.13 322.142 112.924C321.521 110.859 318.619 108.637 316.175 109.24C313.868 109.806 312.683 113.185 312.732 115.118C312.781 117.245 313.886 119.277 313.815 121.405C313.735 123.788 312.107 126.002 309.893 127.188C307.62 128.337 304.977 128.681 302.453 128.154C304.423 127.431 305.678 125.535 306.038 123.61C306.397 121.686 305.989 119.678 305.465 117.77C305.251 117.142 305.14 116.487 305.137 115.828C305.177 115.13 305.47 114.469 305.581 113.763C305.905 111.512 304.161 109.347 304.401 107.088C304.512 106.351 304.79 105.645 305.215 105.015C305.64 104.385 306.203 103.845 306.867 103.432C308.207 102.612 309.72 102.068 311.304 101.838C312.555 101.615 313.965 101.425 314.773 100.52C315.256 99.9913 315.474 99.2808 316.028 98.8058C316.836 98.1325 318.065 98.2192 319.134 98.3514C325.225 99.1032 331.817 100.305 335.806 104.659C336.64 105.568 337.345 106.609 338.383 107.311C339.821 108.29 341.688 108.484 343.365 109.046C345.903 109.908 348.011 111.609 349.288 113.825C349.731 114.651 350.175 115.576 351.062 115.965C351.505 116.125 351.976 116.207 352.451 116.204L357.127 116.452C356.377 117.695 355.275 118.722 353.941 119.421C352.607 120.121 351.093 120.465 349.563 120.417Z" fill="#F55F44"/>
<path d="M325.983 120.471C325.983 120.471 328.246 120.69 332.767 119.674C337.287 118.658 341.812 121.851 341.812 121.851L351.324 122.578L370.658 118.369C370.658 118.369 375.648 108.641 377.986 111.256C380.324 113.87 375.804 119.967 374.402 120.694L354.58 128.526C354.58 128.526 339.612 130.414 338.21 129.398L337.899 133.318L330.415 129.98L327.155 122.867L325.983 120.471Z" fill="#FDB797"/>
<path opacity="0.05" d="M374.397 120.541L354.594 128.39C354.594 128.39 339.625 130.277 338.223 129.261L337.913 133.181L330.429 129.844L327.155 122.731L326.13 120.636H325.983L327.155 123.032L330.429 130.145L337.913 133.483L338.223 129.563C339.625 130.579 354.594 128.691 354.594 128.691L374.397 120.843C375.542 120.252 378.749 116.097 378.639 113.164C378.537 116.064 375.506 119.976 374.397 120.541Z" fill="black"/>
<path d="M312.963 126.638L306.57 130.414C303.106 132.934 300.549 136.378 299.241 140.286L294.406 147.399C294.406 147.399 291.3 150.159 289.57 150.592L275.068 162.497C275.068 162.497 266.337 166.999 271.962 170.048C277.588 173.096 278.981 165.256 278.981 165.256L295.839 154.801C295.839 154.801 309.716 142.897 309.716 140.282L314.707 142.314L312.963 126.638Z" fill="#FDB797"/>
<path opacity="0.05" d="M309.689 139.997C309.689 142.612 295.812 154.516 295.812 154.516L278.954 164.971C278.954 164.971 277.552 172.819 271.935 169.763C270.649 169.065 270.116 168.288 270.059 167.512C269.997 168.387 270.502 169.267 271.935 170.056C277.547 173.104 278.954 165.264 278.954 165.264L295.812 154.81C295.812 154.81 309.689 142.905 309.689 140.29L314.68 142.323L314.649 142.017L309.689 139.997Z" fill="black"/>
<path d="M331.6 170.3C331.6 170.3 326.72 184.703 326.84 186.587C326.96 188.471 328.694 191.874 332.204 194.658L342.048 209.425L345.078 215.316L351.036 213.787C351.036 213.787 348.818 210.115 347.957 206.79C347.957 206.79 345.566 196.426 338.246 188.582C338.246 188.582 336.804 187.454 339.031 183.724C339.031 183.724 349.998 171.431 350.366 166.438L331.6 170.3Z" fill="#FDB797"/>
<path opacity="0.05" d="M331.6 170.3C331.6 170.3 326.72 184.703 326.84 186.587C326.96 188.471 328.694 191.874 332.204 194.658L342.048 209.425L345.078 215.316L351.036 213.787C351.036 213.787 348.818 210.115 347.957 206.79C347.957 206.79 345.566 196.426 338.246 188.582C338.246 188.582 336.804 187.454 339.031 183.724C339.031 183.724 349.998 171.431 350.366 166.438L331.6 170.3Z" fill="black"/>
<path opacity="0.1" d="M330.895 166.71C330.895 166.71 319.804 177.743 319.045 179.486C318.287 181.23 318.265 185.005 320.137 188.925L322.164 206.204V212.738L328.246 213.742C328.246 213.742 327.936 209.533 328.712 206.191C328.712 206.191 331.374 195.865 328.402 185.864C328.402 185.864 327.621 184.266 331.365 181.8C331.365 181.8 346.959 175.12 349.607 170.767L330.895 166.71Z" fill="black"/>
<path d="M330.74 166.71C330.74 166.71 319.649 177.743 318.89 179.486C318.132 181.23 318.109 185.005 319.981 188.925L322.009 206.204V212.738L328.091 213.742C328.091 213.742 327.781 209.533 328.557 206.191C328.557 206.191 331.219 195.865 328.246 185.864C328.246 185.864 327.466 184.266 331.21 181.8C331.21 181.8 346.804 175.12 349.452 170.767L330.74 166.71Z" fill="#FDB797"/>
<path opacity="0.05" d="M330.82 166.71L330.735 166.793L349.062 170.783C346.4 175.137 330.82 181.816 330.82 181.816C327.075 184.294 327.856 185.881 327.856 185.881C330.82 195.898 328.167 206.208 328.167 206.208C327.448 209.285 327.656 213.094 327.692 213.68L328.167 213.759C328.167 213.759 327.856 209.549 328.632 206.208C328.632 206.208 331.294 195.881 328.322 185.881C328.322 185.881 327.541 184.282 331.285 181.816C331.285 181.816 346.879 175.137 349.528 170.783L330.82 166.71Z" fill="black"/>
<path d="M313.766 119.525C313.766 119.525 315.948 122.718 313.766 126.932L315.948 137.386L324.994 136.226L329.359 131.579L325.908 120.389C325.908 120.389 323.1 121.405 322.802 114.292L313.766 119.525Z" fill="#FDB797"/>
<path opacity="0.1" d="M311.871 126.932C311.871 126.932 312.497 134.627 313.273 136.37L312.647 142.467C312.647 142.467 312.492 148.564 320.602 150.163C320.602 150.163 328.397 157.569 328.241 159.601C328.086 161.633 330.579 165.987 330.579 165.987L327.474 168.466L327.629 170.498L329.812 168.466C329.812 168.466 348.68 181.386 358.648 172.675L357.091 163.529C357.091 163.529 358.422 155.764 347.034 148.795C347.034 148.795 340.25 140.736 338.068 131.591C338.068 131.591 331.83 131.009 330.273 128.832L327.168 120.12L324.595 120.628L327.012 130.282C327.012 130.282 324.204 138.993 316.41 135.238L314.635 124.912L311.871 126.932Z" fill="black"/>
<path d="M311.871 126.494C311.871 126.494 312.497 134.189 313.273 135.932L312.647 142.029C312.647 142.029 312.492 148.126 320.602 149.725C320.602 149.725 328.397 157.131 328.241 159.163C328.086 161.196 330.579 165.549 330.579 165.549L327.474 168.028L327.629 170.06L329.812 168.028C329.812 168.028 348.68 180.949 358.648 172.237L357.091 163.092C357.091 163.092 357.792 154.454 346.408 147.486C346.408 147.486 340.25 140.299 338.068 131.153C338.068 131.153 331.83 130.571 330.273 128.394L327.168 119.682L324.595 120.19L327.012 129.844C327.012 129.844 324.204 138.555 316.41 134.801L314.635 124.474L311.871 126.494Z" fill="#252A62"/>
<path d="M254.052 163.009H229.062V163.154H254.052V163.009Z" fill="#B4ABAB"/>
<path d="M253.431 161.993H229.688V162.137H253.431V161.993Z" fill="#B4ABAB"/>
<path d="M251.869 160.977H230.153V161.121H251.869V160.977Z" fill="#B4ABAB"/>
<path d="M250.153 159.96H230.935V160.105H250.153V159.96Z" fill="#B4ABAB"/>
<path d="M248.44 158.944H232.025V159.089H248.44V158.944Z" fill="#B4ABAB"/>
<path d="M246.568 157.928H233.428V158.073H246.568V157.928Z" fill="#B4ABAB"/>
<path d="M243.76 156.912H235.61V157.057H243.76V156.912Z" fill="#B4ABAB"/>
<path d="M254.984 164.17H228.592V164.314H254.984V164.17Z" fill="#B4ABAB"/>
<path d="M255.454 165.331H228.592V165.475H255.454V165.331Z" fill="#B4ABAB"/>
<path d="M255.764 166.491H228.126V166.636H255.764V166.491Z" fill="#B4ABAB"/>
<path d="M256.128 167.652H228.126V167.796H256.128V167.652Z" fill="#B4ABAB"/>
<path d="M255.973 168.817H228.126V168.961H255.973V168.817Z" fill="#B4ABAB"/>
<path d="M255.503 169.978H228.437V170.122H255.503V169.978Z" fill="#B4ABAB"/>
<path d="M254.722 171.138H229.062V171.283H254.722V171.138Z" fill="#B4ABAB"/>
<path d="M253.631 172.299H229.062V172.443H253.631V172.299Z" fill="#B4ABAB"/>
<path d="M252.229 173.46H230.153V173.604H252.229V173.46Z" fill="#B4ABAB"/>
<path d="M250.512 174.62H231.245V174.765H250.512V174.62Z" fill="#B4ABAB"/>
<path d="M248.645 175.785H232.492V175.93H248.645V175.785Z" fill="#B4ABAB"/>
<path d="M246.462 176.946H234.989V177.09H246.462V176.946Z" fill="#B4ABAB"/>
<path d="M231.542 159.548H231.387V174.951H231.542V159.548Z" fill="#B4ABAB"/>
<path d="M230.606 160.708H230.451V173.935H230.606V160.708Z" fill="#B4ABAB"/>
<path d="M229.67 162.013H229.515V172.774H229.67V162.013Z" fill="#B4ABAB"/>
<path d="M228.734 164.046H228.579V170.886H228.734V164.046Z" fill="#B4ABAB"/>
<path d="M232.789 158.531H232.634V175.967H232.789V158.531Z" fill="#B4ABAB"/>
<path d="M234.035 157.804H233.88V176.549H234.035V157.804Z" fill="#B4ABAB"/>
<path d="M235.282 157.222H235.127V176.983H235.282V157.222Z" fill="#B4ABAB"/>
<path d="M236.533 156.788H236.378V177.421H236.533V156.788Z" fill="#B4ABAB"/>
<path d="M237.78 156.354H237.625V177.859H237.78V156.354Z" fill="#B4ABAB"/>
<path d="M239.026 156.354H238.871V177.859H239.026V156.354Z" fill="#B4ABAB"/>
<path d="M240.273 156.354H240.118V177.859H240.273V156.354Z" fill="#B4ABAB"/>
<path d="M241.52 156.354H241.364V177.859H241.52V156.354Z" fill="#B4ABAB"/>
<path d="M242.771 156.788H242.615V177.855H242.771V156.788Z" fill="#B4ABAB"/>
<path d="M244.018 157.077H243.862V177.71H244.018V157.077Z" fill="#B4ABAB"/>
<path d="M245.264 157.371H245.108V177.421H245.264V157.371Z" fill="#B4ABAB"/>
<path d="M246.511 157.949H246.355V176.839H246.511V157.949Z" fill="#B4ABAB"/>
<path d="M247.757 158.531H247.602V176.405H247.757V158.531Z" fill="#B4ABAB"/>
<path d="M249.004 159.548H248.849V175.822H249.004V159.548Z" fill="#B4ABAB"/>
<path d="M250.255 159.981H250.1V174.951H250.255V159.981Z" fill="#B4ABAB"/>
<path d="M251.502 160.853H251.347V174.224H251.502V160.853Z" fill="#B4ABAB"/>
<path d="M252.748 161.869H252.593V173.352H252.748V161.869Z" fill="#B4ABAB"/>
<path d="M253.995 162.74H253.84V172.047H253.995V162.74Z" fill="#B4ABAB"/>
<path d="M255.241 164.628H255.086V170.742H255.241V164.628Z" fill="#B4ABAB"/>
<path d="M240.406 178.292C239.017 178.3 237.634 178.123 236.298 177.768C232.988 176.872 230.491 175.038 229.076 172.46C227.809 170.064 227.495 167.327 228.188 164.736C229.439 159.779 234.262 155.008 241.897 156.284L242.154 156.33C244.823 156.808 247.351 157.814 249.567 159.279C262.237 167.582 265.094 166.47 265.094 166.458L265.565 166.206V168.048L265.223 168.015C261.062 167.602 254.576 172.039 251.053 174.707C248.428 176.736 245.199 177.968 241.799 178.239C241.326 178.275 240.861 178.292 240.406 178.292ZM239.452 156.656C233.561 156.656 229.834 160.688 228.783 164.868C227.62 169.49 229.528 175.327 236.471 177.206C238.184 177.654 239.97 177.806 241.741 177.656C245.014 177.394 248.122 176.207 250.65 174.253C254.137 171.597 260.556 167.231 264.935 167.412V167.065C263.706 167.197 259.806 166.694 249.194 159.737C247.05 158.32 244.604 157.346 242.021 156.883L241.768 156.838C241.003 156.715 240.228 156.656 239.452 156.66V156.656Z" fill="#535461"/>
<path d="M264.313 165.694H277.716C278.129 165.694 278.525 165.847 278.817 166.119C279.109 166.39 279.273 166.759 279.273 167.144C279.273 167.528 279.109 167.897 278.817 168.169C278.525 168.441 278.129 168.594 277.716 168.594H264.313V165.702V165.694Z" fill="#535461"/>
<path d="M266.186 165.694H264.313V168.598H266.186V165.694Z" fill="#F0E4E4"/>
<path d="M252.1 173.914L251.736 173.443C254.398 171.663 255.729 169.725 255.729 167.66C255.729 164.137 251.772 161.398 251.736 161.373L252.105 160.902C252.278 161.022 256.368 163.835 256.359 167.66C256.359 169.92 254.931 172.022 252.1 173.914Z" fill="#535461"/>
<path opacity="0.1" d="M323.437 119.356C322.971 118.455 322.58 116.981 322.478 114.589L313.433 119.814C313.801 120.419 314.063 121.074 314.209 121.756C315.831 122.237 317.568 122.266 319.208 121.84C320.847 121.413 322.317 120.55 323.437 119.356Z" fill="black"/>
<path d="M317.173 121.847C321.995 121.847 325.904 118.207 325.904 113.718C325.904 109.228 321.995 105.588 317.173 105.588C312.351 105.588 308.442 109.228 308.442 113.718C308.442 118.207 312.351 121.847 317.173 121.847Z" fill="#FDB797"/>
<path opacity="0.1" d="M316.761 111.714C317.648 112.045 318.238 112.821 319.081 113.222C320.292 113.796 321.743 113.499 323.1 113.734C324.622 114.003 326.015 114.973 327.536 114.841C329.364 114.692 330.7 112.908 330.642 111.202C330.584 109.496 329.378 107.968 327.887 106.976C326.396 105.985 324.622 105.44 322.878 104.911C320.66 104.229 318.264 103.544 315.971 104.035C313.833 104.494 308.074 107.129 308.371 109.624C308.855 113.635 314.534 110.888 316.761 111.714Z" fill="black"/>
<path d="M316.761 111.429C317.648 111.76 318.238 112.536 319.081 112.937C320.292 113.511 321.743 113.214 323.1 113.449C324.622 113.718 326.015 114.688 327.536 114.556C329.364 114.407 330.7 112.623 330.642 110.917C330.584 109.211 329.378 107.683 327.887 106.691C326.396 105.7 324.622 105.155 322.878 104.626C320.66 103.944 318.264 103.259 315.971 103.75C313.833 104.209 308.074 106.844 308.371 109.339C308.855 113.346 314.534 110.595 316.761 111.429Z" fill="#F55F44"/>
<path opacity="0.1" d="M329.736 159.667C329.736 159.667 330.202 163.298 331.453 164.459L329.736 159.667Z" fill="black"/>
<path opacity="0.1" d="M345.632 147.907C345.786 149.024 345.51 150.156 344.852 151.1L345.632 147.907Z" fill="black"/>
<path opacity="0.1" d="M338.166 138.617C338.166 138.617 336.764 141.232 333.02 142.971L338.166 138.617Z" fill="black"/>
<g opacity="0.05">
<path opacity="0.05" d="M315.46 135.205C318.188 136.527 320.305 136.317 321.906 135.491C320.469 135.904 318.703 135.813 316.551 134.772L314.777 124.445L313.743 125.226L315.46 135.205Z" fill="black"/>
<path opacity="0.05" d="M326.218 120.108L329.323 128.819C330.881 130.996 337.118 131.579 337.118 131.579C339.301 140.724 345.458 147.911 345.458 147.911C356.842 154.88 356.141 163.517 356.141 163.517L357.698 172.662C356.859 173.396 355.907 174.009 354.872 174.48C356.328 173.982 357.661 173.215 358.79 172.225L357.241 163.079C357.241 163.079 357.942 154.442 346.559 147.474C346.559 147.474 340.401 140.286 338.218 131.141C338.218 131.141 331.981 130.558 330.424 128.382L327.318 119.67L324.745 120.178L324.798 120.389L326.218 120.108Z" fill="black"/>
<path opacity="0.05" d="M328.849 168.453L327.718 169.506L327.758 170.048L329.213 168.693L328.849 168.453Z" fill="black"/>
</g>
<path opacity="0.1" d="M335.34 163.881C335.34 163.881 341.888 159.671 347.189 159.671L335.34 163.881Z" fill="black"/>
<path opacity="0.1" d="M321.929 148.634C321.929 148.634 325.673 146.458 326.764 144.714L321.929 148.634Z" fill="black"/>
<path d="M274.526 164.174C274.526 164.174 272.654 166.351 273.59 167.065C274.526 167.78 276.864 164.587 276.864 164.587L274.526 164.174Z" fill="#FDB797"/>
<path d="M207.005 166.855C205.957 166.855 204.951 167.242 204.21 167.933C203.469 168.623 203.052 169.559 203.052 170.535C203.045 170.656 203.045 170.778 203.052 170.899C203.052 170.965 203.061 171.031 203.079 171.097V171.151C203.233 172 203.704 172.771 204.41 173.327L204.538 173.427C205.034 173.789 205.616 174.035 206.235 174.146C206.854 174.256 207.493 174.227 208.097 174.061C208.702 173.895 209.255 173.596 209.71 173.191C210.166 172.785 210.511 172.284 210.716 171.729C210.921 171.174 210.981 170.581 210.89 170.001C210.799 169.42 210.56 168.868 210.194 168.39C209.827 167.913 209.343 167.524 208.782 167.256C208.221 166.988 207.6 166.849 206.97 166.851L207.005 166.855Z" fill="url(#paint1_linear_1641_749)"/>
<path d="M204.738 173.237C205.396 173.714 206.207 173.97 207.041 173.962C207.875 173.955 208.681 173.684 209.328 173.195C209.976 172.706 210.426 172.027 210.605 171.269C210.785 170.511 210.683 169.718 210.317 169.021C209.95 168.324 209.341 167.763 208.588 167.43C207.835 167.096 206.983 167.011 206.171 167.186C205.359 167.362 204.634 167.789 204.116 168.397C203.598 169.005 203.317 169.759 203.319 170.535C203.312 170.648 203.312 170.761 203.319 170.874C203.319 170.935 203.326 170.996 203.341 171.06V171.109C203.486 171.903 203.927 172.623 204.587 173.142L204.738 173.237Z" fill="#3AD29F"/>
<path d="M204.738 173.237H204.867C204.916 172.757 206.349 171.997 207.529 171.382C208.766 170.725 209.534 170.304 209.658 169.949C209.822 169.494 209.334 168.961 208.811 168.664C208.19 168.305 207.302 168.135 206.672 168.722C205.651 169.54 204.54 170.257 203.358 170.861L203.381 171.047V171.097C203.478 171.047 205.781 169.858 206.836 168.866C207.36 168.383 208.119 168.536 208.651 168.866C209.183 169.197 209.481 169.597 209.387 169.866C209.294 170.134 208.269 170.692 207.373 171.163C206.1 171.845 204.782 172.539 204.618 173.129L204.738 173.237Z" fill="#F0E4E4"/>
<path d="M348.369 207.653C348.369 207.653 344.376 211.14 342.003 212.445L344.159 214.333L351.031 213.457V209.971L348.369 207.653Z" fill="#F0E4E4"/>
<path d="M322.474 211.429L321.072 210.846V214.622L328.867 215.783V212.445L322.474 211.429Z" fill="#F0E4E4"/>
<path opacity="0.05" d="M319.976 210.851C319.976 210.851 320.287 215.642 312.648 218.402C312.648 218.402 304.693 219.128 310.154 222.755C315.616 226.382 332.141 221.739 332.141 221.739C332.141 221.739 331.83 217.092 329.958 213.317C329.958 213.329 320.917 212.755 319.976 210.851Z" fill="black"/>
<path d="M319.976 211.264C319.976 211.264 320.287 216.055 312.648 218.815C312.648 218.815 304.693 219.542 310.154 223.168C315.616 226.795 332.141 222.152 332.141 222.152C332.141 222.152 331.83 217.505 329.958 213.73C329.958 213.742 320.917 213.168 319.976 211.264Z" fill="#F0E4E4"/>
<path opacity="0.05" d="M342.744 213.915C342.744 213.915 342.899 219.141 337.908 220.157C332.917 221.173 339.935 224.221 342.744 223.494C345.552 222.767 357.091 213.329 357.091 213.329C357.091 213.329 353.036 207.546 350.387 207.546C350.387 207.546 345.552 215.08 342.744 213.915Z" fill="black"/>
<path d="M342.744 214.328C342.744 214.328 342.899 219.554 337.908 220.57C332.917 221.586 339.935 224.635 342.744 223.908C345.552 223.181 357.091 213.742 357.091 213.742C357.091 213.742 353.036 207.959 350.387 207.959C350.387 207.959 345.552 215.493 342.744 214.328Z" fill="#F0E4E4"/>
<path d="M113.619 187.31L135.792 229.24L157.97 271.167H113.619H69.269L91.4419 229.24L113.619 187.31Z" stroke="#F0E4E4" stroke-miterlimit="10"/>
<path d="M43.5249 187.31L65.6978 229.24L87.8752 271.167H43.5249V187.31Z" stroke="#F0E4E4" stroke-miterlimit="10"/>
<path d="M83.0084 187.31L105.181 229.24L127.359 271.167H83.0084L47.5176 268.275L49.9664 249.786L60.8311 229.24L83.0084 187.31Z" stroke="#F0E4E4" stroke-miterlimit="10"/>
<path d="M134.914 187.31L157.087 229.24L179.264 271.167H134.914H90.564L112.737 229.24L134.914 187.31Z" stroke="#F0E4E4" stroke-miterlimit="10"/>
<path d="M176.173 187.31L198.345 229.24L220.523 271.167H176.173H131.822L153.995 229.24L176.173 187.31Z" stroke="#F0E4E4" stroke-miterlimit="10"/>
<path d="M220.536 187.31L242.709 229.24L264.886 271.167H220.536H176.186L198.358 229.24L220.536 187.31Z" stroke="#F0E4E4" stroke-miterlimit="10"/>
<path d="M264.899 187.31L287.072 229.24L309.249 271.167H264.899H220.549L242.722 229.24L264.899 187.31Z" stroke="#F0E4E4" stroke-miterlimit="10"/>
<path d="M310.15 187.31L332.323 229.24L354.5 271.167H310.15H265.8L287.973 229.24L310.15 187.31Z" stroke="#F0E4E4" stroke-miterlimit="10"/>
<path d="M354.958 187.31L377.131 229.24L399.308 271.167H354.958H310.607L332.78 229.24L354.958 187.31Z" stroke="#F0E4E4" stroke-miterlimit="10"/>
<path d="M396.659 187.31L418.832 229.24L441.009 271.167H396.659H352.309L374.481 229.24L396.659 187.31Z" stroke="#F0E4E4" stroke-miterlimit="10"/>
<path d="M459.066 271.167H434.382L456.555 229.24L457.438 227.576L459.066 271.167Z" stroke="#F0E4E4" stroke-miterlimit="10"/>
<path d="M423.277 187.31L445.45 229.24L467.627 271.167H423.277H378.927L401.1 229.24L423.277 187.31Z" stroke="#F0E4E4" stroke-miterlimit="10"/>
<path d="M436.142 187.31L458.315 229.24L463.204 238.477V271.167H436.142H391.792L413.965 229.24L436.142 187.31Z" stroke="#F0E4E4" stroke-miterlimit="10"/>
<path d="M450.783 187.31V271.167H406.433L428.606 229.24L450.783 187.31Z" stroke="#F0E4E4" stroke-miterlimit="10"/>
<path d="M201.015 187.31L223.188 229.24L245.366 271.167H201.015H156.665L178.838 229.24L201.015 187.31Z" stroke="#F0E4E4" stroke-miterlimit="10"/>
<path d="M288.412 187.31L310.585 229.24L332.762 271.167H288.412H244.062L266.234 229.24L288.412 187.31Z" stroke="#F0E4E4" stroke-miterlimit="10"/>
<path d="M375.808 187.31L397.981 229.24L420.159 271.167H375.808H331.458L353.631 229.24L375.808 187.31Z" stroke="#F0E4E4" stroke-miterlimit="10"/>
<path d="M463.205 187.31L465.17 191.032L462.317 229.447L463.205 271.167H418.854L441.027 229.24L463.205 187.31Z" stroke="#F0E4E4" stroke-miterlimit="10"/>
<path d="M378.914 271.58L356.736 229.653L334.563 187.723H378.914H423.264L401.087 229.653L378.914 271.58Z" stroke="#F0E4E4" stroke-miterlimit="10"/>
<path d="M287.968 271.58L265.791 229.653L243.618 187.723H287.968H332.319L310.141 229.653L287.968 271.58Z" stroke="#F0E4E4" stroke-miterlimit="10"/>
<path d="M197.023 271.58L174.846 229.653L152.673 187.723H197.023H241.373L219.196 229.653L197.023 271.58Z" stroke="#F0E4E4" stroke-miterlimit="10"/>
<path d="M106.078 271.58L83.9004 229.653L61.7275 187.723H106.078H150.428L128.251 229.653L106.078 271.58Z" stroke="#F0E4E4" stroke-miterlimit="10"/>
<path d="M459.212 183.596H55.5034V191.031H459.212V183.596Z" fill="#F0E4E4"/>
<path d="M459.212 268.275H55.5034V275.71H459.212V268.275Z" fill="#F0E4E4"/>
<path d="M58.6086 177.4H42.6377V281.907H58.6086V177.4Z" fill="#535461"/>
<path d="M467.197 177.4H451.227V281.907H467.197V177.4Z" fill="#535461"/>
</g>
<defs>
<linearGradient id="paint0_linear_1641_749" x1="324.359" y1="225.725" x2="324.359" y2="97.6742" gradientUnits="userSpaceOnUse">
<stop stop-color="#808080" stop-opacity="0.25"/>
<stop offset="0.54" stop-color="#808080" stop-opacity="0.12"/>
<stop offset="1" stop-color="#808080" stop-opacity="0.1"/>
</linearGradient>
<linearGradient id="paint1_linear_1641_749" x1="207.005" y1="174.211" x2="207.005" y2="166.855" gradientUnits="userSpaceOnUse">
<stop stop-color="#808080" stop-opacity="0.25"/>
<stop offset="0.54" stop-color="#808080" stop-opacity="0.12"/>
<stop offset="1" stop-color="#808080" stop-opacity="0.1"/>
</linearGradient>
<clipPath id="clip0_1641_749">
<rect width="490" height="330" fill="white"/>
</clipPath>
</defs>
</svg>
