<svg width="306" height="306" viewBox="0 0 306 306" fill="none" xmlns="http://www.w3.org/2000/svg">
<g clip-path="url(#clip0_1675_76)">
<path d="M306 153C306.027 173.711 301.835 194.211 293.679 213.249L293.172 214.417C279.375 245.804 255.451 271.659 225.227 287.845C195.003 304.032 160.224 309.616 126.451 303.705C125.532 303.542 124.615 303.373 123.699 303.198C114.235 301.363 104.968 298.63 96.0233 295.036C94.5703 294.453 93.1278 293.847 91.6959 293.221C90.7181 292.796 89.7404 292.357 88.7717 291.904C62.2725 279.622 39.8366 260.021 24.1085 235.411C8.38037 210.801 0.0155565 182.207 0 153C0 68.5014 68.5014 0 153 0C237.499 0 306 68.5014 306 153Z" fill="#5DB075"/>
<path opacity="0.2" d="M126.452 303.705C125.533 303.542 124.615 303.373 123.7 303.198C123.102 285.857 121.051 250.264 114.058 212.987C110.233 192.585 104.923 171.672 97.5582 152.977C95.0351 146.509 92.1532 140.186 88.9259 134.038C81.4842 119.983 72.4581 108.15 61.5127 100.134L63.1242 97.9336C72.2272 104.606 80.4083 113.973 87.6675 126.035C89.8449 129.647 91.9362 133.501 93.9415 137.596C96.0916 141.978 98.1422 146.63 100.093 151.551C101.338 154.684 102.541 157.925 103.701 161.275C108.753 175.819 113.047 192.413 116.584 211.059C117.367 215.178 118.112 219.398 118.82 223.72C124.302 257.203 125.954 288.161 126.452 303.705Z" fill="black"/>
<path opacity="0.2" d="M91.6961 293.221C90.7183 292.796 89.7406 292.357 88.7719 291.904C87.8258 281.629 86.0876 268.882 82.9099 256.782C81.5182 251.348 79.7314 246.022 77.564 240.848C73.9381 232.361 69.244 225.145 63.1738 220.696L64.7853 218.5C71.1407 223.154 76.043 230.509 79.8318 239.114C84.1004 248.811 86.9477 260.095 88.8443 270.878C90.2521 278.885 91.1393 286.621 91.6961 293.221Z" fill="black"/>
<path opacity="0.2" d="M46.2899 100.07C53.812 100.07 59.9099 93.9724 59.9099 86.4503C59.9099 78.9282 53.812 72.8303 46.2899 72.8303C38.7678 72.8303 32.6699 78.9282 32.6699 86.4503C32.6699 93.9724 38.7678 100.07 46.2899 100.07Z" fill="black"/>
<path opacity="0.2" d="M50.6766 217.314C58.1987 217.314 64.2966 211.216 64.2966 203.694C64.2966 196.172 58.1987 190.074 50.6766 190.074C43.1545 190.074 37.0566 196.172 37.0566 203.694C37.0566 211.216 43.1545 217.314 50.6766 217.314Z" fill="black"/>
<path opacity="0.2" d="M100.362 109.328C97.4739 125.622 103.85 140.377 103.85 140.377C103.85 140.377 114.908 128.712 117.796 112.418C120.685 96.1232 114.309 81.3687 114.309 81.3687C114.309 81.3687 103.25 93.033 100.362 109.328Z" fill="black"/>
<path opacity="0.2" d="M55.0969 148.008C70.639 153.691 86.2567 150.044 86.2567 150.044C86.2567 150.044 76.6756 137.182 61.1335 131.499C45.5913 125.816 29.9736 129.463 29.9736 129.463C29.9736 129.463 39.5547 142.324 55.0969 148.008Z" fill="black"/>
<path opacity="0.2" d="M52.4611 251.831C63.3549 255.815 74.3171 253.216 74.3171 253.216C74.3171 253.216 67.617 244.159 56.7232 240.176C45.8294 236.192 34.8672 238.791 34.8672 238.791C34.8672 238.791 41.5673 247.848 52.4611 251.831Z" fill="black"/>
<path d="M152.686 186.881C185.628 186.881 212.333 160.176 212.333 127.234C212.333 94.2915 185.628 67.5864 152.686 67.5864C119.743 67.5864 93.0381 94.2915 93.0381 127.234C93.0381 160.176 119.743 186.881 152.686 186.881Z" fill="#D0CDE1"/>
<path d="M129.386 172.902C129.386 172.902 136.842 208.317 136.842 212.045C136.842 215.773 172.257 232.549 172.257 232.549L203.945 226.957L215.129 193.405C215.129 193.405 196.489 165.446 196.489 154.262L129.386 172.902Z" fill="#D0CDE1"/>
<path d="M293.678 213.249L293.171 214.417C279.375 245.804 255.451 271.659 225.227 287.845C195.003 304.032 160.224 309.616 126.451 303.705C125.532 303.542 124.615 303.373 123.699 303.198C114.235 301.363 104.968 298.63 96.0233 295.036C94.5702 294.452 93.1277 293.847 91.6958 293.221C90.7181 292.796 89.7403 292.357 88.7716 291.904C79.9912 287.836 71.6171 282.944 63.762 277.292L56.6914 256.782L60.6658 253.749L68.8409 247.507L77.5637 240.848L79.8315 239.114L114.057 212.987L116.583 211.058L134.373 197.479L134.377 197.474C134.377 197.474 153.616 228.821 181.577 219.501C209.538 210.18 208.926 183.455 208.926 183.455L293.678 213.249Z" fill="#2F2E41"/>
<path d="M100.96 79.178C100.96 79.178 119.898 38.146 156.195 47.6149C192.493 57.0839 213.009 71.2872 214.587 85.4906C216.165 99.694 213.798 120.999 213.798 120.999C213.798 120.999 209.852 91.8032 184.602 98.1158C159.352 104.428 119.898 99.694 119.898 99.694L113.585 156.507C113.585 156.507 106.483 146.25 98.5926 152.562C90.7018 158.875 75.7094 91.8032 100.96 79.178Z" fill="#2F2E41"/>
<path d="M96.0234 295.037C94.5704 294.453 93.1279 293.848 91.696 293.221C90.7182 292.796 89.7405 292.357 88.7718 291.904C74.25 285.17 60.8718 276.205 49.123 265.333C53.283 259.665 56.6916 256.782 56.6916 256.782H84.6525L88.8442 270.878L96.0234 295.037Z" fill="#2F2E41"/>
<path d="M269.185 210.18L293.172 214.417C286.753 229.041 278.083 242.569 267.479 254.51L269.185 210.18Z" fill="#2F2E41"/>
</g>
<defs>
<clipPath id="clip0_1675_76">
<rect width="306" height="306" fill="white"/>
</clipPath>
</defs>
</svg>
