<svg width="289" height="358" viewBox="0 0 289 358" fill="none" xmlns="http://www.w3.org/2000/svg">
<path d="M122.327 348.612L131.578 348.612L135.979 312.947L122.325 312.948L122.327 348.612Z" fill="#A0616A"/>
<path d="M119.967 345.593L138.186 345.593H138.186C141.265 345.593 144.219 346.815 146.396 348.992C148.573 351.168 149.796 354.119 149.797 357.197V357.574L119.967 357.575L119.967 345.593Z" fill="#2F2E41"/>
<path d="M157.038 348.612L166.289 348.612L170.69 312.947L157.036 312.948L157.038 348.612Z" fill="#A0616A"/>
<path d="M154.678 345.593L172.896 345.593H172.897C175.976 345.593 178.929 346.815 181.107 348.992C183.284 351.168 184.507 354.119 184.508 357.197V357.574L154.678 357.575L154.678 345.593Z" fill="#2F2E41"/>
<path d="M94.256 207.683C95.0131 206.873 95.5833 205.906 95.9263 204.852C96.2694 203.798 96.3769 202.681 96.2414 201.58C96.106 200.48 95.7307 199.423 95.1421 198.483C94.5536 197.543 93.766 196.744 92.8349 196.141L99.2626 169.966L86.0631 174.667L81.9828 198.802C81.0735 200.433 80.7943 202.34 81.1979 204.163C81.6015 205.985 82.6601 207.597 84.1729 208.691C85.6857 209.786 87.5477 210.288 89.4061 210.102C91.2645 209.916 92.9901 209.056 94.256 207.683Z" fill="#9E616A"/>
<path d="M192.459 205.42C191.702 204.61 191.131 203.644 190.788 202.589C190.445 201.535 190.338 200.418 190.473 199.318C190.609 198.217 190.984 197.16 191.573 196.22C192.161 195.28 192.949 194.481 193.88 193.878L187.452 167.704L200.652 172.405L204.732 196.54C205.641 198.17 205.92 200.077 205.517 201.9C205.113 203.723 204.055 205.334 202.542 206.429C201.029 207.523 199.167 208.025 197.309 207.839C195.45 207.654 193.725 206.793 192.459 205.42Z" fill="#9E616A"/>
<path d="M106.428 189.335L119.25 339.471L138.012 337.762L145.521 221.727L152.205 267.672L153.544 340.653L170.522 339.522L179.95 261.009L177.637 184.972L113.183 178.448L106.428 189.335Z" fill="#2F2E41"/>
<path d="M141.702 52.7151C152.448 52.7151 161.159 44.008 161.159 33.2673C161.159 22.5266 152.448 13.8196 141.702 13.8196C130.956 13.8196 122.244 22.5266 122.244 33.2673C122.244 44.008 130.956 52.7151 141.702 52.7151Z" fill="#A0616A"/>
<path d="M135.54 17.7091C135.54 17.7091 144.62 20.14 149.322 21.1124C154.024 22.0848 153.538 19.3297 153.538 19.3297C153.538 19.3297 159.7 20.14 159.375 19.4918C159.051 18.8435 161.97 15.4402 158.564 11.5506C155.159 7.66104 156.132 4.7439 156.132 4.7439H153.214L152.403 3.60944H147.863C147.863 3.60944 142.843 -0.789837 133.925 0.506641C125.007 1.80312 114.461 5.23008 113.488 10.5782C113.356 11.3036 113.182 12.1095 112.98 12.9608C110.542 23.2509 115.723 32.8788 121.097 41.9879C122.418 44.2266 128.807 49.1082 128.643 45.7589C128.48 42.4097 122.892 34.8879 126.784 34.4017C130.675 33.9155 137.323 24.0296 135.54 17.7091Z" fill="#2F2E41"/>
<path d="M121.454 59.3584H155.721L179.951 187.253C179.951 187.253 158.827 189.058 146.754 193.583C134.68 198.109 114.609 183.246 114.609 183.246L121.454 59.3584Z" fill="#5DB075"/>
<path d="M125.732 73.8012V59.3584L121.852 59.3347L93.5049 77.3489L99.656 176.046C99.656 176.046 106.936 208.973 117.979 208.632C129.021 208.29 137.535 90.9074 125.732 73.8012Z" fill="#2F2E41"/>
<path d="M102.61 80.0753L93.5048 77.3489C93.5048 77.3489 86.764 79.3211 86.764 86.109C86.764 92.8968 80.9561 189.335 80.9561 189.335L99.4062 190.965L103.365 141.92L102.61 80.0753Z" fill="#2F2E41"/>
<path d="M153.167 68.7623L151.352 59.3584L156.563 58.5806L175.428 66.1226C175.428 66.1226 192.406 190.189 184.86 193.96C177.314 197.731 172.219 194.81 172.219 194.81C172.219 194.81 147.4 103.305 151.793 90.936L153.167 68.7623Z" fill="#2F2E41"/>
<path d="M162.223 68.008L165.442 66.6073C165.442 66.6073 174.892 61.927 180.253 71.3782C185.615 80.8295 204.479 186.418 204.479 186.418L188.957 189.335L177.353 151.336L162.223 68.008Z" fill="#2F2E41"/>
</svg>
