<svg width="176" height="176" viewBox="0 0 176 176" fill="none" xmlns="http://www.w3.org/2000/svg">
<path fill-rule="evenodd" clip-rule="evenodd" d="M87.9998 167.2C131.74 167.2 167.2 131.74 167.2 87.9998C167.2 44.2595 131.74 8.79998 87.9998 8.79998C44.2595 8.79998 8.79998 44.2595 8.79998 87.9998C8.79998 131.74 44.2595 167.2 87.9998 167.2ZM87.9998 176C136.602 176 176 136.602 176 87.9998C176 39.3975 136.602 0 87.9998 0C39.3975 0 0 39.3975 0 87.9998C0 136.602 39.3975 176 87.9998 176Z" fill="#4ECB71"/>
<path d="M35.2001 139.172C35.2001 134.626 38.5969 130.785 43.1201 130.284C77.066 126.526 99.0879 126.865 132.959 130.367C134.65 130.545 136.254 131.211 137.572 132.285C138.891 133.359 139.869 134.793 140.386 136.413C140.903 138.034 140.937 139.769 140.484 141.409C140.031 143.048 139.11 144.52 137.834 145.644C97.8604 180.488 75.0156 180.008 38.0161 145.679C36.2121 144.007 35.2001 141.631 35.2001 139.176V139.172Z" fill="#4ECB71"/>
<path fill-rule="evenodd" clip-rule="evenodd" d="M132.506 134.741C98.9029 131.265 77.1977 130.939 43.5994 134.657C42.4934 134.786 41.4739 135.319 40.7359 136.152C39.9979 136.986 39.5934 138.063 39.5998 139.176C39.5998 140.435 40.1234 141.627 41.0078 142.454C59.347 159.465 73.2421 167.151 86.8249 167.2C100.456 167.248 115.099 159.623 134.943 142.331C135.574 141.77 136.027 141.038 136.25 140.223C136.472 139.409 136.452 138.548 136.194 137.744C135.936 136.941 135.45 136.23 134.795 135.697C134.14 135.165 133.345 134.834 132.506 134.745V134.741ZM42.6358 125.91C76.9381 122.113 99.2813 122.456 133.416 125.989C135.961 126.255 138.373 127.257 140.357 128.872C142.341 130.487 143.811 132.646 144.587 135.084C145.363 137.521 145.411 140.133 144.726 142.598C144.041 145.062 142.652 147.274 140.729 148.962C120.599 166.509 103.835 176.066 86.7985 176C69.7134 175.938 53.6886 166.219 35.0282 148.905C33.6922 147.66 32.6271 146.154 31.8996 144.479C31.172 142.804 30.7977 140.998 30.7998 139.172C30.7934 135.891 31.9975 132.724 34.1815 130.276C36.3655 127.828 39.3758 126.272 42.6358 125.906V125.91Z" fill="#4ECB71"/>
<path d="M123.2 70.3996C123.2 79.7352 119.491 88.6885 112.89 95.2898C106.289 101.891 97.3353 105.6 87.9997 105.6C78.6641 105.6 69.7109 101.891 63.1096 95.2898C56.5084 88.6885 52.7998 79.7352 52.7998 70.3996C52.7998 61.064 56.5084 52.1108 63.1096 45.5095C69.7109 38.9083 78.6641 35.1997 87.9997 35.1997C97.3353 35.1997 106.289 38.9083 112.89 45.5095C119.491 52.1108 123.2 61.064 123.2 70.3996V70.3996Z" fill="#4ECB71"/>
<path fill-rule="evenodd" clip-rule="evenodd" d="M87.9997 96.7996C95.0014 96.7996 101.716 94.0182 106.667 89.0672C111.618 84.1163 114.4 77.4013 114.4 70.3996C114.4 63.3979 111.618 56.683 106.667 51.7321C101.716 46.7811 95.0014 43.9997 87.9997 43.9997C80.998 43.9997 74.2831 46.7811 69.3322 51.7321C64.3812 56.683 61.5998 63.3979 61.5998 70.3996C61.5998 77.4013 64.3812 84.1163 69.3322 89.0672C74.2831 94.0182 80.998 96.7996 87.9997 96.7996V96.7996ZM87.9997 105.6C97.3353 105.6 106.289 101.891 112.89 95.2898C119.491 88.6885 123.2 79.7352 123.2 70.3996C123.2 61.064 119.491 52.1108 112.89 45.5095C106.289 38.9083 97.3353 35.1997 87.9997 35.1997C78.6641 35.1997 69.7109 38.9083 63.1096 45.5095C56.5084 52.1108 52.7998 61.064 52.7998 70.3996C52.7998 79.7352 56.5084 88.6885 63.1096 95.2898C69.7109 101.891 78.6641 105.6 87.9997 105.6V105.6Z" fill="#4ECB71"/>
</svg>
