<svg width="49" height="49" viewBox="0 0 49 49" fill="none" xmlns="http://www.w3.org/2000/svg">
<path d="M43.3997 22.3808C44.3675 23.6466 44.3675 25.3555 43.3997 26.6193C40.3515 30.5985 33.0383 38.7917 24.5 38.7917C15.9618 38.7917 8.64854 30.5985 5.60033 26.6193C5.12949 26.0132 4.8739 25.2675 4.8739 24.5C4.8739 23.7325 5.12949 22.9869 5.60033 22.3808C8.64854 18.4016 15.9618 10.2084 24.5 10.2084C33.0383 10.2084 40.3515 18.4016 43.3997 22.3808V22.3808Z" stroke="#4ECB71" stroke-width="2" stroke-linecap="round" stroke-linejoin="round"/>
<path d="M24.5 30.625C27.8827 30.625 30.625 27.8827 30.625 24.5C30.625 21.1173 27.8827 18.375 24.5 18.375C21.1173 18.375 18.375 21.1173 18.375 24.5C18.375 27.8827 21.1173 30.625 24.5 30.625Z" stroke="#4ECB71" stroke-width="2" stroke-linecap="round" stroke-linejoin="round"/>
</svg>
