<svg width="557" height="543" viewBox="0 0 557 543" fill="none" xmlns="http://www.w3.org/2000/svg">
<path d="M262.596 4.53024L245.552 14.2408L35.5652 133.877L18.5211 143.587C10.2507 148.312 4.11286 156.269 1.45403 165.713C-1.20481 175.157 -0.167464 185.316 4.33849 193.963L160.711 493.221C165.235 501.856 172.856 508.266 181.9 511.042C190.945 513.818 200.674 512.735 208.955 508.03L208.999 508.005L452.986 368.998L453.03 368.973C461.3 364.249 467.438 356.292 470.097 346.848C472.756 337.404 471.719 327.244 467.213 318.598L310.84 19.3396C306.316 10.7038 298.695 4.29473 289.651 1.5184C280.607 -1.25794 270.877 -0.174784 262.596 4.53024Z" fill="#F2F2F2"/>
<path d="M267.499 13.9125L247.312 25.4139L43.6111 141.468L23.4238 152.97C17.5343 156.334 13.1634 162 11.2699 168.726C9.37649 175.451 10.1152 182.686 13.324 188.843L169.696 488.101C172.919 494.251 178.345 498.815 184.786 500.792C191.227 502.769 198.155 501.998 204.052 498.647L204.096 498.622L448.083 359.615L448.128 359.59C454.017 356.226 458.388 350.559 460.281 343.834C462.175 337.109 461.436 329.874 458.227 323.717L301.855 24.4587C298.633 18.309 293.206 13.7449 286.766 11.7678C280.325 9.79071 273.396 10.562 267.499 13.9125Z" fill="white"/>
<path d="M270.865 106.802L179.867 158.646C178.489 159.432 176.868 159.613 175.361 159.151C173.854 158.688 172.585 157.62 171.833 156.18C171.081 154.741 170.907 153.048 171.35 151.475C171.793 149.902 172.816 148.577 174.195 147.791L265.193 95.9473C266.571 95.1618 268.192 94.9804 269.699 95.4429C271.206 95.9054 272.475 96.9739 273.227 98.4134C273.979 99.8528 274.153 101.545 273.71 103.119C273.267 104.692 272.244 106.017 270.865 106.802H270.865Z" fill="#F2F2F2"/>
<path d="M301.878 112.905L189.439 176.964C188.06 177.75 186.439 177.931 184.933 177.469C183.426 177.006 182.157 175.938 181.405 174.498C180.653 173.059 180.479 171.366 180.922 169.793C181.365 168.22 182.388 166.895 183.767 166.109L296.206 102.05C296.888 101.661 297.638 101.416 298.411 101.329C299.184 101.243 299.966 101.316 300.712 101.545C301.458 101.774 302.153 102.154 302.759 102.664C303.364 103.174 303.867 103.803 304.24 104.516C304.612 105.228 304.846 106.011 304.929 106.818C305.012 107.625 304.942 108.442 304.723 109.221C304.503 110 304.139 110.726 303.651 111.358C303.163 111.99 302.561 112.516 301.878 112.905H301.878Z" fill="#F2F2F2"/>
<path d="M142.457 137.066L58.5624 184.863C57.902 185.24 57.4119 185.874 57.1997 186.628C56.9875 187.382 57.0706 188.193 57.4309 188.883L93.1554 257.25C93.5159 257.94 94.1239 258.452 94.8458 258.674C95.5676 258.895 96.3442 258.808 97.0048 258.432L180.9 210.635C181.56 210.258 182.05 209.623 182.262 208.87C182.475 208.116 182.391 207.305 182.031 206.615L146.307 138.248C145.946 137.558 145.338 137.046 144.616 136.824C143.894 136.603 143.118 136.69 142.457 137.066Z" fill="#F2F2F2"/>
<path d="M316.016 193.55L192.589 263.87C191.906 264.259 191.157 264.504 190.384 264.59C189.611 264.677 188.829 264.604 188.083 264.375C187.337 264.146 186.641 263.765 186.036 263.256C185.431 262.746 184.927 262.117 184.555 261.404C184.182 260.691 183.948 259.909 183.865 259.102C183.782 258.294 183.853 257.478 184.072 256.699C184.291 255.92 184.655 255.194 185.143 254.562C185.632 253.93 186.234 253.404 186.917 253.015L310.344 182.695C311.723 181.91 313.343 181.728 314.85 182.191C316.357 182.653 317.626 183.722 318.378 185.161C319.13 186.601 319.304 188.293 318.861 189.866C318.418 191.44 317.395 192.765 316.016 193.55H316.016Z" fill="#F2F2F2"/>
<path d="M347.029 199.652L202.16 282.188C200.782 282.974 199.161 283.155 197.654 282.692C196.148 282.23 194.879 281.162 194.126 279.722C193.374 278.283 193.201 276.59 193.643 275.017C194.086 273.444 195.11 272.119 196.488 271.333L341.357 188.797C342.735 188.012 344.356 187.831 345.863 188.293C347.369 188.755 348.638 189.824 349.391 191.263C350.143 192.703 350.317 194.395 349.874 195.969C349.431 197.542 348.407 198.867 347.029 199.652H347.029Z" fill="#F2F2F2"/>
<path d="M145.582 321.46C159.456 321.46 170.703 309.716 170.703 295.229C170.703 280.742 159.456 268.999 145.582 268.999C131.708 268.999 120.461 280.742 120.461 295.229C120.461 309.716 131.708 321.46 145.582 321.46Z" fill="#F2F2F2"/>
<path d="M521.443 127.838H243.4C233.973 127.849 224.935 131.765 218.269 138.725C211.603 145.686 207.854 155.123 207.843 164.967V505.872C207.854 515.715 211.603 525.152 218.269 532.113C224.935 539.073 233.973 542.989 243.4 543H521.443C530.87 542.989 539.908 539.073 546.574 532.113C553.24 525.152 556.989 515.715 557 505.872V164.967C556.989 155.123 553.24 145.686 546.574 138.725C539.908 131.765 530.87 127.849 521.443 127.838Z" fill="#E6E6E6"/>
<path d="M521.443 138.527H243.4C236.687 138.535 230.251 141.323 225.504 146.28C220.757 151.236 218.087 157.957 218.079 164.967V505.872C218.087 512.881 220.757 519.602 225.504 524.559C230.251 529.515 236.687 532.304 243.4 532.311H521.443C528.156 532.303 534.593 529.515 539.339 524.559C544.086 519.602 546.757 512.881 546.764 505.872V164.967C546.757 157.957 544.086 151.236 539.34 146.28C534.593 141.323 528.156 138.535 521.443 138.527Z" fill="white"/>
<path d="M481.789 221.752H378.128C376.557 221.752 375.051 221.101 373.941 219.941C372.83 218.782 372.206 217.209 372.206 215.569C372.206 213.93 372.83 212.357 373.941 211.197C375.051 210.038 376.557 209.386 378.128 209.386H481.789C482.567 209.386 483.338 209.545 484.057 209.855C484.776 210.165 485.43 210.621 485.98 211.195C486.531 211.769 486.968 212.451 487.266 213.202C487.564 213.952 487.717 214.757 487.717 215.569C487.717 216.382 487.564 217.186 487.266 217.937C486.968 218.688 486.531 219.369 485.98 219.944C485.43 220.518 484.776 220.973 484.057 221.283C483.338 221.594 482.567 221.753 481.789 221.752Z" fill="#5DB075"/>
<path d="M506.214 242.619H378.128C376.557 242.619 375.051 241.968 373.941 240.808C372.83 239.649 372.206 238.076 372.206 236.436C372.206 234.796 372.83 233.224 373.941 232.064C375.051 230.905 376.557 230.253 378.128 230.253H506.214C507.785 230.253 509.291 230.905 510.401 232.064C511.512 233.224 512.136 234.796 512.136 236.436C512.136 238.076 511.512 239.649 510.401 240.808C509.291 241.968 507.785 242.619 506.214 242.619Z" fill="#5DB075"/>
<path d="M355.187 184.098H259.617C258.864 184.098 258.143 184.41 257.611 184.966C257.079 185.521 256.78 186.275 256.78 187.06V264.943C256.78 265.729 257.079 266.482 257.611 267.037C258.143 267.593 258.864 267.905 259.617 267.905H355.187C355.939 267.905 356.661 267.593 357.193 267.037C357.725 266.482 358.024 265.729 358.024 264.943V187.06C358.024 186.275 357.725 185.521 357.193 184.966C356.661 184.41 355.939 184.098 355.187 184.098Z" fill="#E6E6E6"/>
<path d="M285.832 231.923C285.872 238.498 283.551 244.85 279.327 249.726C275.149 254.515 268.927 257.691 262.649 256.377C256.868 255.167 252.171 249.891 252.757 243.509C252.854 242.126 253.239 240.783 253.884 239.571C254.53 238.36 255.421 237.311 256.494 236.496C257.568 235.681 258.799 235.12 260.102 234.853C261.405 234.586 262.747 234.619 264.037 234.949C269.528 236.437 271.716 244.701 267.14 248.58C266.042 249.511 264.465 247.883 265.573 246.944C268.598 244.38 267.663 238.77 264.012 237.363C259.761 235.725 255.257 239.248 254.951 243.786C254.589 249.166 258.536 253.218 263.377 254.172C268.614 255.204 273.806 252.406 277.355 248.543C281.422 244.057 283.666 238.1 283.616 231.923C283.626 231.623 283.747 231.339 283.954 231.131C284.16 230.922 284.437 230.805 284.724 230.805C285.012 230.805 285.288 230.922 285.495 231.131C285.701 231.339 285.822 231.623 285.832 231.923Z" fill="#2F2E41"/>
<path d="M307.476 246.636C329.315 246.636 347.019 228.15 347.019 205.347C347.019 182.543 329.315 164.057 307.476 164.057C285.637 164.057 267.934 182.543 267.934 205.347C267.934 228.15 285.637 246.636 307.476 246.636Z" fill="#5DB075"/>
<path d="M305.453 222.964L305.412 221.422C308.161 221.342 310.585 221.162 312.406 219.772C312.922 219.356 313.346 218.829 313.65 218.226C313.954 217.623 314.129 216.959 314.165 216.279C314.197 215.863 314.137 215.445 313.989 215.058C313.841 214.671 313.61 214.324 313.313 214.046C312.104 212.979 310.159 213.325 308.741 214.003L307.519 214.589L309.863 196.698L311.327 196.907L309.333 212.126C311.26 211.534 313.045 211.789 314.267 212.867C314.737 213.295 315.105 213.831 315.343 214.432C315.582 215.033 315.684 215.684 315.642 216.333C315.599 217.247 315.365 218.14 314.956 218.949C314.548 219.758 313.975 220.465 313.277 221.018C310.937 222.804 307.896 222.893 305.453 222.964Z" fill="#2F2E41"/>
<path d="M326.526 198.219H318.568V199.762H326.526V198.219Z" fill="#2F2E41"/>
<path d="M301.405 198.219H293.447V199.762H301.405V198.219Z" fill="#2F2E41"/>
<path d="M285.572 267.905C288.536 265.942 291.74 264.403 295.096 263.33C294.776 262.142 294.781 260.883 295.111 259.697C295.556 258.198 296.454 256.891 297.67 255.969C298.886 255.047 300.354 254.56 301.856 254.582H311.491C312.996 254.562 314.467 255.049 315.685 255.972C316.903 256.895 317.803 258.204 318.252 259.704C318.582 260.888 318.587 262.144 318.266 263.33C321.622 264.404 324.826 265.943 327.79 267.905H285.572Z" fill="#2F2E41"/>
<path d="M352.771 190.023C352.051 189.112 351.164 188.359 350.163 187.809C349.285 187.33 348.309 187.079 347.318 187.076C345.958 187.093 344.637 187.558 343.543 188.403C340.536 190.625 338.452 195.416 338.452 200.963C338.452 207.922 341.733 213.693 345.996 214.695C346.43 214.797 346.873 214.849 347.318 214.85C352.202 214.85 356.185 208.624 356.185 200.963C356.185 196.519 354.847 192.561 352.771 190.023Z" fill="#3F3D56"/>
<path d="M271.557 188.071H271.549C270.562 187.431 269.424 187.086 268.261 187.076C267.271 187.079 266.295 187.33 265.417 187.809C264.416 188.359 263.529 189.112 262.809 190.023L262.801 190.031C260.733 192.569 259.395 196.527 259.395 200.963C259.395 206.95 261.819 212.057 265.217 214.009C266.148 214.553 267.195 214.843 268.261 214.85C268.499 214.85 268.735 214.834 268.971 214.803H268.978C273.529 214.233 277.128 208.246 277.128 200.963C277.128 195.13 274.815 190.123 271.557 188.071Z" fill="#3F3D56"/>
<path d="M265.771 212.681C265.947 212.681 266.121 212.637 266.277 212.553C266.434 212.469 266.569 212.348 266.671 212.198C266.774 212.049 266.841 211.877 266.867 211.695C266.894 211.513 266.878 211.328 266.822 211.154C264.704 204.576 264.066 197.578 264.96 190.702C265.853 183.826 268.253 177.257 271.972 171.507C275.692 165.757 280.632 160.98 286.407 157.547C292.182 154.114 298.638 152.118 305.272 151.714C311.906 151.31 318.54 152.508 324.658 155.216C330.777 157.925 336.215 162.07 340.549 167.329C344.884 172.589 347.999 178.821 349.652 185.542C351.305 192.263 351.452 199.291 350.081 206.081C350.02 206.382 350.076 206.695 350.237 206.952C350.397 207.209 350.649 207.389 350.936 207.452C351.224 207.516 351.524 207.457 351.77 207.29C352.017 207.122 352.189 206.859 352.25 206.559C353.692 199.42 353.539 192.03 351.801 184.964C350.064 177.897 346.789 171.344 342.232 165.814C337.675 160.284 331.957 155.926 325.524 153.078C319.091 150.23 312.116 148.97 305.141 149.395C298.166 149.82 291.379 151.919 285.307 155.529C279.235 159.139 274.042 164.162 270.131 170.208C266.221 176.255 263.699 183.161 262.76 190.391C261.822 197.62 262.493 204.979 264.721 211.893C264.796 212.123 264.937 212.322 265.125 212.464C265.313 212.605 265.54 212.681 265.771 212.681Z" fill="#3F3D56"/>
<path d="M327.34 178.595C328.906 180.826 328.134 183.834 326.485 185.758C324.338 188.262 320.915 188.42 317.942 187.955C314.607 187.434 311.069 185.802 307.692 186.902C304.814 187.839 302.761 190.565 299.771 191.249C297.119 191.856 293.948 191.053 293.018 188.101C292.572 186.683 294.712 186.075 295.156 187.486C295.757 189.395 298.354 189.357 299.841 188.829C302.225 187.981 304.063 185.919 306.406 184.935C309.169 183.774 312.166 184.298 314.979 184.959C317.63 185.583 320.682 186.507 323.323 185.342C325.277 184.481 326.832 181.766 325.426 179.763C324.583 178.56 326.505 177.404 327.34 178.595Z" fill="#2F2E41"/>
<path d="M481.633 320.483H341.029C340.252 320.483 339.482 320.323 338.763 320.013C338.045 319.702 337.392 319.247 336.842 318.672C336.292 318.098 335.856 317.417 335.559 316.667C335.261 315.916 335.108 315.112 335.108 314.301C335.108 313.489 335.261 312.685 335.559 311.934C335.856 311.184 336.292 310.503 336.842 309.929C337.392 309.354 338.045 308.899 338.763 308.588C339.482 308.278 340.252 308.118 341.029 308.118H481.633C483.203 308.12 484.707 308.772 485.816 309.931C486.925 311.09 487.548 312.662 487.548 314.301C487.548 315.939 486.925 317.511 485.816 318.67C484.707 319.829 483.203 320.482 481.633 320.483Z" fill="#E6E6E6"/>
<path d="M506.059 341.351H341.029C340.251 341.351 339.48 341.192 338.761 340.882C338.042 340.572 337.388 340.116 336.838 339.542C336.287 338.968 335.851 338.286 335.553 337.535C335.255 336.785 335.101 335.98 335.101 335.168C335.101 334.355 335.255 333.551 335.553 332.8C335.851 332.049 336.287 331.368 336.838 330.793C337.388 330.219 338.042 329.764 338.761 329.453C339.48 329.143 340.251 328.984 341.029 328.985H506.059C506.837 328.984 507.607 329.143 508.327 329.453C509.046 329.764 509.699 330.219 510.25 330.793C510.8 331.368 511.237 332.049 511.535 332.8C511.833 333.551 511.986 334.355 511.986 335.168C511.986 335.98 511.833 336.785 511.535 337.535C511.237 338.286 510.8 338.968 510.25 339.542C509.699 340.116 509.046 340.572 508.327 340.882C507.607 341.192 506.837 341.351 506.059 341.351Z" fill="#E6E6E6"/>
<path d="M481.633 395.483H341.029C339.459 395.483 337.953 394.832 336.842 393.672C335.732 392.513 335.108 390.94 335.108 389.3C335.108 387.661 335.732 386.088 336.842 384.928C337.953 383.769 339.459 383.117 341.029 383.117H481.633C483.204 383.117 484.71 383.769 485.82 384.928C486.931 386.088 487.555 387.661 487.555 389.3C487.555 390.94 486.931 392.513 485.82 393.672C484.71 394.832 483.204 395.483 481.633 395.483Z" fill="#E6E6E6"/>
<path d="M506.059 416.35H341.029C339.459 416.35 337.953 415.699 336.842 414.539C335.732 413.38 335.108 411.807 335.108 410.167C335.108 408.528 335.732 406.955 336.842 405.796C337.953 404.636 339.459 403.985 341.029 403.985H506.059C507.629 403.985 509.135 404.636 510.245 405.796C511.356 406.955 511.98 408.528 511.98 410.167C511.98 411.807 511.356 413.38 510.245 414.539C509.135 415.699 507.629 416.35 506.059 416.35Z" fill="#E6E6E6"/>
<path d="M285.38 350.733C299.254 350.733 310.501 338.989 310.501 324.502C310.501 310.015 299.254 298.271 285.38 298.271C271.507 298.271 260.26 310.015 260.26 324.502C260.26 338.989 271.507 350.733 285.38 350.733Z" fill="#E6E6E6"/>
<path d="M285.38 426.339C299.254 426.339 310.501 414.595 310.501 400.109C310.501 385.622 299.254 373.878 285.38 373.878C271.507 373.878 260.26 385.622 260.26 400.109C260.26 414.595 271.507 426.339 285.38 426.339Z" fill="#E6E6E6"/>
<path d="M481.633 471.09H341.029C339.459 471.09 337.953 470.438 336.842 469.279C335.732 468.119 335.108 466.547 335.108 464.907C335.108 463.267 335.732 461.694 336.842 460.535C337.953 459.375 339.459 458.724 341.029 458.724H481.633C483.204 458.724 484.71 459.375 485.82 460.535C486.931 461.694 487.555 463.267 487.555 464.907C487.555 466.547 486.931 468.119 485.82 469.279C484.71 470.438 483.204 471.09 481.633 471.09Z" fill="#E6E6E6"/>
<path d="M506.059 491.957H341.029C339.459 491.957 337.953 491.305 336.842 490.146C335.732 488.986 335.108 487.414 335.108 485.774C335.108 484.134 335.732 482.561 336.842 481.402C337.953 480.242 339.459 479.591 341.029 479.591H506.059C507.629 479.591 509.135 480.242 510.245 481.402C511.356 482.561 511.98 484.134 511.98 485.774C511.98 487.414 511.356 488.986 510.245 490.146C509.135 491.305 507.629 491.957 506.059 491.957Z" fill="#E6E6E6"/>
<path d="M285.38 501.946C299.254 501.946 310.501 490.202 310.501 475.715C310.501 461.228 299.254 449.484 285.38 449.484C271.507 449.484 260.26 461.228 260.26 475.715C260.26 490.202 271.507 501.946 285.38 501.946Z" fill="#E6E6E6"/>
</svg>
