<svg width="935" height="602" viewBox="0 0 935 602" fill="none" xmlns="http://www.w3.org/2000/svg">
<g clip-path="url(#clip0_1641_19)">
<path opacity="0.1" d="M935 386.283C935.016 402.577 933.131 418.814 929.388 434.631C928.128 439.955 926.665 445.174 924.998 450.288C922.955 456.592 920.592 462.777 917.917 468.817C916.567 471.867 915.141 474.861 913.638 477.8C913.662 494.509 910.372 511.043 903.977 526.356C892.411 553.826 871.795 576.039 845.884 588.95C829.661 597.042 811.932 601.294 793.959 601.402H177.495C150.065 601.466 123.108 593.933 99.3649 579.569C95.8561 577.444 92.4373 575.18 89.1085 572.778C81.8807 567.557 75.0901 561.702 68.81 555.279C60.3079 546.582 52.8178 536.865 46.4952 526.331C31.6408 501.665 23.7717 473.104 23.7993 443.954C8.75606 416.351 -0.0158691 383.286 -0.0158691 347.755C-0.0158691 302.926 13.924 262.032 36.8262 231.076C41.6009 224.608 46.831 218.523 52.4728 212.87C58.0395 207.277 64.0227 202.155 70.3659 197.554C75.4391 193.865 80.7433 190.537 86.2427 187.592C88.5369 186.363 90.8391 185.217 93.1809 184.147C95.2369 183.192 97.3168 182.304 99.4205 181.465C101.945 180.458 104.501 179.536 107.089 178.701C109.677 177.865 112.23 177.129 114.75 176.492C118.454 175.546 122.222 174.777 126.054 174.185C129.229 173.695 132.404 173.354 135.58 173.089C138.104 172.901 140.65 172.79 143.217 172.757H144.606C147.432 172.757 150.242 172.873 153.028 173.072C153.322 172.458 153.64 171.835 153.933 171.221C155.045 169.013 156.196 166.804 157.355 164.638V164.58C157.553 164.206 157.752 163.832 157.958 163.467C158.895 161.699 159.871 159.947 160.872 158.212C161.332 157.382 161.785 156.602 162.253 155.813C162.356 155.622 162.459 155.44 162.578 155.249C163.055 154.418 163.539 153.588 164.031 152.758C166.481 148.668 169.03 144.642 171.676 140.679C171.906 140.339 172.12 140.007 172.351 139.675C172.763 139.06 173.144 138.454 173.605 137.848C174.7 136.246 175.828 134.636 176.963 133.05C177.757 131.929 178.55 130.809 179.408 129.729C181.472 126.94 183.591 124.167 185.758 121.428C187.926 118.688 190.212 115.932 192.522 113.234C192.84 112.861 193.157 112.495 193.49 112.122L196.88 108.261C197.047 108.079 197.19 107.913 197.349 107.747C197.753 107.29 198.142 106.834 198.579 106.385C200.397 104.376 202.262 102.392 204.136 100.433C213.705 90.4896 223.9 81.2265 234.651 72.7056C235.072 72.357 235.5 72.0249 235.921 71.6928C237.938 70.0989 239.986 68.5299 242.034 66.9858C253.301 58.5373 265.077 50.8562 277.288 43.9904C278.13 43.4923 278.987 43.0191 279.852 42.5459C290.803 36.4917 302.063 31.0709 313.582 26.3079C319.859 23.7123 326.247 21.2882 332.746 19.0357C337.048 17.5663 341.367 16.1633 345.741 14.8849C352.504 12.8538 359.353 11.0219 366.285 9.38922C386.71 4.59657 407.489 1.63598 428.395 0.539695C434.746 0.191027 441.168 0.0166957 447.662 0.0166957C478.995 -0.0266835 510.206 4.10197 540.541 12.3031C540.855 12.7988 541.284 13.2029 541.788 13.4773C542.292 13.7518 542.855 13.8877 543.423 13.8721H546.09C547.249 14.1959 548.4 14.5362 549.559 14.8849C556.032 16.8385 562.411 18.9665 568.699 21.2688L570.286 21.8666C585.804 27.6368 600.903 34.5729 615.464 42.6206C628.588 49.8606 641.226 58.0261 653.29 67.0605C655.148 68.4552 656.979 69.8637 658.784 71.2861C660.975 69.8084 663.203 68.3999 665.468 67.0605C674.215 61.8534 683.506 57.7142 693.157 54.7243C713.335 48.48 734.684 47.6068 755.267 52.1841C781.662 58.0367 805.557 72.5645 824.855 93.2272C832.716 101.654 839.719 110.913 845.749 120.855C846.185 121.569 846.622 122.291 847.043 123.022C852.216 131.851 856.661 141.124 860.332 150.741C860.466 151.09 860.601 151.43 860.721 151.779C864.11 160.778 866.843 170.033 868.897 179.464C868.992 179.938 869.104 180.419 869.199 180.901C871.12 190.028 872.425 199.285 873.104 208.603C873.104 208.935 873.104 209.276 873.168 209.616C873.501 214.436 873.671 219.309 873.676 224.235C873.676 228.635 873.533 233.002 873.271 237.327C873.271 237.8 873.208 238.298 873.168 238.779C873.096 240.041 872.993 241.27 872.89 242.54C878.953 247.651 884.627 253.247 889.862 259.276C892.175 261.916 894.414 264.658 896.578 267.503C903.173 276.143 908.968 285.419 913.884 295.206C927.284 321.754 935 352.918 935 386.283Z" fill="#5DB075"/>
<path opacity="0.1" d="M845.296 549.683C845.296 568.553 826.593 586.21 793.959 601.419H177.495C148.972 601.419 122.259 590.627 99.3649 571.807C93.6096 564.668 90.5771 557.271 90.5771 549.675C90.5771 529.618 111.725 510.898 148.289 495.075L149.321 494.643C159.641 490.219 171.176 486.043 183.782 482.116C184.099 482.017 184.425 481.925 184.742 481.809C194.745 478.738 205.385 475.826 216.663 473.076C217.02 472.993 217.369 472.902 217.726 472.835C222.077 471.756 226.514 470.751 231.047 469.747L232.793 469.365C265.778 462.209 303.271 456.531 343.931 452.679H343.979C349.673 452.125 355.428 451.63 361.245 451.193C367.714 450.653 374.264 450.197 380.884 449.773C385.941 449.433 391.061 449.142 396.197 448.877C396.216 448.868 396.236 448.864 396.257 448.864C396.277 448.864 396.298 448.868 396.316 448.877C419.489 447.656 443.431 447.017 467.913 447.017C528.451 447.017 585.671 450.902 636.374 457.809C636.421 457.801 636.469 457.801 636.516 457.809C644.312 458.872 651.965 459.993 659.427 461.188C661.562 461.537 663.69 461.885 665.777 462.242C674.197 463.665 682.4 465.167 690.386 466.75C784.298 485.42 845.296 515.63 845.296 549.683Z" fill="#5DB075"/>
<path d="M691.831 201.962C691.831 201.962 683.432 198.4 656.712 211.21C629.991 224.019 626.657 222.4 619.743 220.474C612.828 218.548 608.97 218.05 601.556 207.35C601.556 207.35 596.324 177.704 591.236 173.105C586.147 168.506 564.666 175.729 564.666 175.729C564.666 175.729 538.874 181.913 533.96 145.843C533.96 145.843 537.445 118.68 532.698 110.345C532.698 110.345 542.288 114.662 558.101 107.689C573.914 100.715 586.576 115.202 586.576 115.202C586.576 115.202 590.545 125.994 590.148 132.436C589.751 138.878 592.26 141.294 599.801 138.18C599.801 138.18 603.508 132.668 598.261 123.553C593.014 114.438 589.267 107.655 590.728 100.582C592.188 93.5094 596.404 83.6886 609.939 78.7824C623.474 73.8761 641.851 72.9712 650.67 69.0944C659.49 65.2175 661.665 62.7437 661.665 62.7437C661.665 62.7437 656.235 68.4303 669.024 92.5465C681.813 116.663 673.66 127.123 673.66 127.123C673.66 127.123 666.857 144.083 636.818 142.705C636.818 142.705 607.875 143.809 623.656 156.643C623.656 156.643 633.762 154.493 648.868 149.471C663.975 144.448 674.883 165.177 677.59 179.597C680.297 194.017 691.831 201.962 691.831 201.962Z" fill="#5DB075"/>
<path d="M652.925 81.0071L653.084 80.9573C654.243 85.5564 641.311 104.052 630.253 118.755L630.126 118.647C645.717 97.9424 653.822 84.5685 652.925 81.0071Z" fill="#444053"/>
<path d="M630.348 118.365L630.42 118.547C621.584 130.286 610.478 144.282 601.587 154.684C600.738 155.672 599.897 156.71 599.087 157.772L598.833 157.556C599.627 156.494 600.492 155.448 601.341 154.46C610.224 144.1 621.505 130.111 630.348 118.365Z" fill="#444053"/>
<path d="M599.047 157.291L599.222 157.606C583.043 178.734 581.972 211.567 581.932 211.824L578.519 207.673C578.558 207.408 582.758 178.568 599.047 157.291Z" fill="#444053"/>
<path d="M673.104 190.506C673.104 190.506 654.052 180.128 639.16 183.864C624.267 187.6 590.775 170.665 590.775 170.665C590.775 170.665 576.566 164.629 573.708 157.747C573.708 157.747 563.952 146.955 563.388 141.385C562.824 135.814 553.338 121.776 547.146 121.237" stroke="#444053" stroke-miterlimit="10"/>
<path d="M670.302 200.492C670.302 200.492 660.697 193.718 661.816 185.832" stroke="#444053" stroke-miterlimit="10"/>
<path d="M655.569 209.234C655.569 209.234 641.827 204.021 640.486 183.565" stroke="#444053" stroke-miterlimit="10"/>
<path d="M633.412 214.53C633.412 214.53 620.282 203.141 624.641 183.233" stroke="#444053" stroke-miterlimit="10"/>
<path d="M606.747 208.968C606.747 208.968 598.015 189.792 605.787 177.314" stroke="#444053" stroke-miterlimit="10"/>
<path d="M673.287 177.862C673.287 177.862 663.356 181.183 665.484 186.629" stroke="#444053" stroke-miterlimit="10"/>
<path d="M661.3 159.042C661.3 159.042 648.003 163.451 647.694 183.117" stroke="#444053" stroke-miterlimit="10"/>
<path d="M642.756 154.46C642.756 154.46 630.65 170.084 631.539 184.279" stroke="#444053" stroke-miterlimit="10"/>
<path d="M621.56 160.586C621.56 160.586 609.542 172.607 611.074 179.29" stroke="#444053" stroke-miterlimit="10"/>
<path d="M614.313 156.344C614.313 156.344 603.04 158.453 601.46 154.584" stroke="#444053" stroke-miterlimit="10"/>
<path d="M599.666 142.115C599.666 142.115 605.358 150.002 606.811 148.234" stroke="#444053" stroke-miterlimit="10"/>
<path d="M656.124 137.126C656.124 137.126 627.705 139.285 621.275 130.319" stroke="#444053" stroke-miterlimit="10"/>
<path d="M593.72 102.367C593.72 102.367 607.049 132.295 616.742 136.105" stroke="#444053" stroke-miterlimit="10"/>
<path d="M607.676 88.1133C607.676 88.1133 615.861 115.641 626.006 124.234" stroke="#444053" stroke-miterlimit="10"/>
<path d="M668.079 114.405C668.079 114.405 646.471 124.101 633.5 114.288" stroke="#444053" stroke-width="0.75" stroke-miterlimit="10"/>
<path d="M626.919 82.2441C626.919 82.2441 631.857 102.475 638.509 107.365" stroke="#444053" stroke-width="0.75" stroke-miterlimit="10"/>
<path d="M664.817 91.7329C664.817 91.7329 652.671 96.5478 648.146 92.8619" stroke="#444053" stroke-width="0.75" stroke-miterlimit="10"/>
<path d="M589.259 148.723C589.259 148.723 589.259 166.364 584.671 167.618" stroke="#444053" stroke-miterlimit="10"/>
<path d="M551.719 171.578C551.719 171.578 569.977 173.238 578.368 163.367" stroke="#444053" stroke-miterlimit="10"/>
<path d="M584.56 127.886C584.56 127.886 580.146 145.776 567.968 150.6" stroke="#444053" stroke-miterlimit="10"/>
<path d="M540.779 152.733C540.779 152.733 553.687 157.424 564.793 145.478" stroke="#444053" stroke-miterlimit="10"/>
<path d="M570.199 112.503C570.199 112.503 568.984 127.695 561.086 134.81" stroke="#444053" stroke-miterlimit="10"/>
<path d="M541.271 129.58C541.271 129.58 551.98 129.655 554.489 126.002" stroke="#444053" stroke-miterlimit="10"/>
<path d="M618.726 187.268H313.733V348.269H618.726V187.268Z" fill="#33323D"/>
<path d="M714.702 397.183H218.727V503.161H714.702V397.183Z" fill="#33323D"/>
<path d="M337.12 423.673H591.442L642.113 602H283.528L337.12 423.673Z" fill="white"/>
<path d="M204.596 333.999V389.03V400.619V503.153H299.603V405.335H633.825V503.153H728.832V400.619V389.03V333.999H204.596Z" fill="#504F60"/>
<path opacity="0.1" d="M728.832 333.999H204.596V389.022H728.832V333.999Z" fill="#33323D"/>
<path opacity="0.8" d="M700.579 369.671C704.885 369.671 708.375 366.021 708.375 361.519C708.375 357.017 704.885 353.367 700.579 353.367C696.274 353.367 692.784 357.017 692.784 361.519C692.784 366.021 696.274 369.671 700.579 369.671Z" fill="#8CCF4D"/>
<path opacity="0.8" d="M665.499 369.671C669.805 369.671 673.295 366.021 673.295 361.519C673.295 357.017 669.805 353.367 665.499 353.367C661.194 353.367 657.704 357.017 657.704 361.519C657.704 366.021 661.194 369.671 665.499 369.671Z" fill="#FA5959"/>
<path d="M607.525 148.541H324.942V323.805H607.525V148.541Z" fill="white"/>
<path d="M650.512 404.347C651.107 411.129 646.209 417.712 647.638 424.354C647.94 425.773 648.527 427.118 648.741 428.505C649.329 432.448 647.082 436.184 644.931 439.488L626.49 467.863C625.75 469.107 624.865 470.251 623.855 471.266C620.322 474.587 615.035 474.205 610.407 475.185C607.153 475.875 604.08 477.29 601.397 479.335C601.28 479.432 601.203 479.572 601.181 479.726C601.158 479.88 601.193 480.037 601.278 480.166C602.041 481.26 603.053 482.137 604.224 482.717C605.394 483.297 606.685 483.562 607.978 483.486C608.462 484.15 607.978 485.146 607.311 485.611C606.319 486.325 604.929 486.516 604.763 488.276C604.693 488.888 604.81 489.506 605.096 490.044C605.842 491.233 607.001 492.072 608.327 492.385C614.678 494.428 621.608 490.841 626.387 485.96C631.166 481.079 634.595 474.919 639.287 469.946C641.883 467.198 644.844 464.841 647.511 462.176C652.846 456.863 657.037 450.396 661.006 443.912C662.317 442.032 663.305 439.928 663.928 437.694C664.42 435.486 664.197 433.153 664.769 430.962C665.515 428.098 667.524 425.815 669.191 423.407C672.469 418.692 674.652 412.931 674.216 407.12C673.779 401.308 670.35 395.589 665.11 393.613C663.486 392.936 661.697 392.823 660.006 393.289C657.855 393.978 656.275 395.838 654.806 397.614L651.306 401.84C650.433 402.775 649.74 403.877 649.265 405.086C649.04 405.695 648.988 406.36 649.116 406.999C649.244 407.639 649.547 408.225 649.988 408.689" fill="#FBBEBE"/>
<path opacity="0.05" d="M650.512 404.347C651.107 411.129 646.209 417.712 647.638 424.354C647.94 425.773 648.527 427.118 648.741 428.505C649.329 432.448 647.082 436.184 644.931 439.488L626.49 467.863C625.75 469.107 624.865 470.251 623.855 471.266C620.322 474.587 615.035 474.205 610.407 475.185C607.153 475.875 604.08 477.29 601.397 479.335C601.28 479.432 601.203 479.572 601.181 479.726C601.158 479.88 601.193 480.037 601.278 480.166C602.041 481.26 603.053 482.137 604.224 482.717C605.394 483.297 606.685 483.562 607.978 483.486C608.462 484.15 607.978 485.146 607.311 485.611C606.319 486.325 604.929 486.516 604.763 488.276C604.693 488.888 604.81 489.506 605.096 490.044C605.842 491.233 607.001 492.072 608.327 492.385C614.678 494.428 621.608 490.841 626.387 485.96C631.166 481.079 634.595 474.919 639.287 469.946C641.883 467.198 644.844 464.841 647.511 462.176C652.846 456.863 657.037 450.396 661.006 443.912C662.317 442.032 663.305 439.928 663.928 437.694C664.42 435.486 664.197 433.153 664.769 430.962C665.515 428.098 667.524 425.815 669.191 423.407C672.469 418.692 674.652 412.931 674.216 407.12C673.779 401.308 670.35 395.589 665.11 393.613C663.486 392.936 661.697 392.823 660.006 393.289C657.855 393.978 656.275 395.838 654.806 397.614L651.306 401.84C650.433 402.775 649.74 403.877 649.265 405.086C649.04 405.695 648.988 406.36 649.116 406.999C649.244 407.639 649.547 408.225 649.988 408.689" fill="black"/>
<path d="M664.475 578.922C660.443 581.487 655.426 581.653 650.742 581.047C649.948 580.955 649.099 580.897 648.614 581.503C647.916 582.392 648.741 583.687 649.591 584.401C652.358 586.567 655.606 587.964 659.03 588.46C662.086 588.906 665.169 589.12 668.254 589.099C676.669 589.249 685.131 589.398 693.466 588.128C693.948 588.09 694.416 587.946 694.84 587.705C695.378 587.312 695.75 586.717 695.88 586.044C696.459 583.786 695.356 581.346 693.697 579.777C692.038 578.208 689.902 577.328 687.814 576.456L680.495 573.476C678.772 572.77 676.018 570.919 674.144 571.06C670.723 571.35 667.381 577.145 664.475 578.922Z" fill="#3F3D56"/>
<path opacity="0.05" d="M664.475 578.922C660.443 581.487 655.426 581.653 650.742 581.047C649.948 580.955 649.099 580.897 648.614 581.503C647.916 582.392 648.741 583.687 649.591 584.401C652.358 586.567 655.606 587.964 659.03 588.46C662.086 588.906 665.169 589.12 668.254 589.099C676.669 589.249 685.131 589.398 693.466 588.128C693.948 588.09 694.416 587.946 694.84 587.705C695.378 587.312 695.75 586.717 695.88 586.044C696.459 583.786 695.356 581.346 693.697 579.777C692.038 578.208 689.902 577.328 687.814 576.456L680.495 573.476C678.772 572.77 676.018 570.919 674.144 571.06C670.723 571.35 667.381 577.145 664.475 578.922Z" fill="black"/>
<path d="M669.58 477.268C666.539 481.51 663.38 486.4 664.134 491.655C664.539 494.486 666.055 496.985 667.167 499.6C668.558 503.197 669.587 506.937 670.239 510.757C671.382 516.311 672.525 521.881 673.224 527.518C674.017 533.885 670.286 552.307 669.937 558.724C669.85 560.268 669.683 561.945 668.651 563.057C668.246 563.497 667.706 563.887 667.532 564.427C667.42 564.976 667.505 565.549 667.77 566.037C669.493 570.097 673.009 573.11 676.915 574.837C680.821 576.564 690.323 579.528 694.562 579.685C695.125 579.756 695.696 579.676 696.221 579.453C696.793 579.095 697.243 578.557 697.507 577.917C700.571 571.799 697.626 550.015 697.674 543.1C697.674 537.289 699.015 531.611 698.777 525.849C698.579 521.225 697.396 516.718 696.967 512.102C696.261 504.539 697.587 496.951 698.92 489.48C699.936 483.76 700.952 478.032 702.254 472.37C703.048 468.925 703.969 465.438 705.787 462.408C707.224 460.026 709.177 458.042 710.82 455.767C715.374 449.524 717.396 441.657 716.448 433.867C716.353 433.104 705.874 436.649 704.961 437.064C701.201 438.736 697.74 441.066 694.729 443.954C692.347 446.361 690.402 449.591 688.275 452.297C685.274 456.116 682.313 459.965 679.392 463.845C676.073 468.3 672.803 472.774 669.58 477.268Z" fill="#464353"/>
<path opacity="0.05" d="M669.58 476.994C666.539 481.236 663.38 486.126 664.134 491.389C664.539 494.212 666.055 496.711 667.167 499.326C668.557 502.924 669.586 506.663 670.239 510.483C671.382 516.037 672.525 521.607 673.224 527.244C674.017 533.611 670.286 552.041 669.937 558.458C669.85 559.994 669.683 561.679 668.651 562.783C668.246 563.223 667.706 563.613 667.532 564.153C667.411 564.718 667.496 565.31 667.77 565.813C669.493 569.865 673.009 572.886 676.915 574.605C680.821 576.323 690.323 577.925 694.562 578.067C695.125 578.137 695.696 578.057 696.221 577.834C696.793 577.476 697.243 576.939 697.507 576.298C700.571 570.18 697.626 549.783 697.674 542.876C697.674 537.065 699.015 531.378 698.777 525.617C698.579 520.993 697.396 516.485 696.967 511.869C696.261 504.307 697.587 496.719 698.92 489.256C699.936 483.528 700.952 477.8 702.254 472.138C703.048 468.693 703.969 465.206 705.787 462.176C707.224 459.802 709.177 457.809 710.82 455.584C715.369 449.339 717.39 441.474 716.448 433.685C716.353 432.913 705.874 436.458 704.961 436.881C701.198 438.555 697.737 440.891 694.729 443.788C692.347 446.204 690.402 449.425 688.275 452.089C685.274 455.908 682.313 459.76 679.392 463.645C676.073 468.073 672.803 472.523 669.58 476.994Z" fill="black"/>
<path d="M635.691 383.867C645.13 383.867 652.782 375.865 652.782 365.993C652.782 356.122 645.13 348.12 635.691 348.12C626.251 348.12 618.599 356.122 618.599 365.993C618.599 375.865 626.251 383.867 635.691 383.867Z" fill="#FBBEBE"/>
<path d="M651.075 365.246C652.654 367.882 654.723 370.159 657.16 371.942C659.597 373.725 662.352 374.977 665.261 375.623L663.975 380.496C661.753 388.906 659.212 397.797 653.044 403.625C653.719 400.777 652.846 397.714 651.306 395.265C649.659 392.883 647.706 390.748 645.503 388.923L635.667 379.973C635.374 379.747 635.123 379.465 634.929 379.143C634.691 378.514 634.691 377.813 634.929 377.184C636.183 373.108 639.763 370.543 642.661 367.803C644.118 366.376 645.422 364.786 646.55 363.063C648.567 360.133 649.781 363.063 651.075 365.246Z" fill="#FBBEBE"/>
<path d="M613.17 348.029L612.789 344.708C615.488 345.439 618.044 343.048 619.766 340.557C621.489 338.067 623.093 335.145 625.72 334.115C628.895 332.853 632.293 334.871 635.341 336.531C638.759 338.52 642.511 339.802 646.392 340.308C647.011 340.33 647.625 340.436 648.218 340.624C650.202 341.362 651.147 343.944 651.433 346.327C651.718 348.709 651.639 351.2 652.623 353.308C653.362 354.902 654.64 356.089 655.418 357.658C657.505 361.892 655.489 367.67 657.696 371.821L652.218 366.566C651.71 366.085 651.004 365.587 650.456 365.993C649.908 366.4 649.988 367.014 649.805 367.571C649.273 369.231 647.328 369.696 645.907 369.057C644.486 368.417 643.462 367.006 642.422 365.736C640.001 362.747 637.12 360.124 633.69 358.846C632.206 358.25 630.618 357.994 629.031 358.092C627.444 358.191 625.896 358.643 624.49 359.418C621.934 360.929 620.06 364.449 616.932 364.574C612.638 364.74 610.852 356.38 608.859 353.076C609.584 352.502 610.095 351.68 610.301 350.753C610.506 349.826 610.395 348.854 609.986 348.004C610.336 347.863 613.114 347.489 613.17 348.029Z" fill="#464353"/>
<path d="M684.409 578.78C681.031 581.93 676.645 583.64 672.12 583.57C670.969 583.57 669.373 583.803 669.365 585.007C669.386 585.365 669.501 585.71 669.699 586.003C671.132 588.493 673.393 590.343 676.05 591.2C678.511 591.98 681.146 591.847 683.718 591.714L691.22 591.308C692.633 591.225 694.054 591.15 695.467 590.967C696.88 590.784 698.404 590.477 699.881 590.253C703.497 589.712 707.155 589.532 710.804 589.714C711.772 589.755 712.892 589.714 713.495 588.95C714.098 588.186 713.773 586.808 713.551 585.704C713.106 583.429 713.551 581.047 713.138 578.764C712.415 574.754 709.121 571.691 705.485 570.238C702.111 568.893 696.126 567.357 692.927 569.59C689.497 571.998 687.433 575.916 684.409 578.78Z" fill="#3F3D56"/>
<path d="M691.839 444.618C692.506 447.939 695.546 450.429 695.642 453.75C695.713 456.439 693.871 458.731 692.554 461.014C691.294 463.405 690.232 465.905 689.378 468.485C686.873 475.182 683.768 481.617 680.106 487.703C678.344 490.617 676.375 493.788 676.78 497.217C677.057 498.817 677.594 500.356 678.368 501.766L683.647 512.733C684.806 514.923 685.712 517.25 686.346 519.665C686.798 521.748 686.846 523.907 687.14 526.032C687.973 532.756 690.99 539.53 689.211 546.047C689.053 546.612 688.497 547.292 688.076 546.877C689.815 550.281 691.252 553.718 691.085 557.578C691.014 559.604 690.418 561.729 691.14 563.605C691.549 564.335 691.819 565.142 691.934 565.979C691.934 566.527 691.688 567.05 691.633 567.64C691.49 569.192 692.847 570.487 694.268 570.96C695.689 571.433 697.221 571.417 698.65 571.865C701.405 572.695 703.358 575.186 705.715 576.912C708.103 578.644 710.924 579.605 713.828 579.677C714.24 579.723 714.656 579.636 715.019 579.428C715.227 579.239 715.395 579.006 715.509 578.744C715.624 578.482 715.685 578.197 715.686 577.909C715.813 576.534 715.614 575.148 715.107 573.872C714.6 572.597 713.801 571.471 712.781 570.595C712.337 570.299 711.969 569.895 711.709 569.416C711.575 568.991 711.54 568.538 711.606 568.096C712.035 562.061 711.931 555.997 711.296 549.982C711.01 548.077 710.917 546.146 711.018 544.221C711.177 542.619 711.637 541.025 711.463 539.422C711.288 537.82 710.518 536.376 710.058 534.832C709.264 532.092 709.47 529.153 709.383 526.281C709.24 521.3 708.153 516.419 707.065 511.571C706.644 509.669 706.168 507.669 704.874 506.257C703.778 505.062 702.008 503.908 702.421 502.314C702.646 501.724 702.987 501.19 703.421 500.745C703.933 500.076 704.309 499.304 704.526 498.478C704.743 497.651 704.797 496.787 704.683 495.939C705.148 496.068 705.641 496.022 706.076 495.81C706.511 495.597 706.861 495.231 707.065 494.776C715.646 490.551 722.585 482.083 725.641 472.686C725.812 471.993 726.08 471.33 726.435 470.718C727.228 469.556 728.61 469.058 729.832 468.41C733.674 466.393 736.334 462.599 738.771 458.888C740.192 456.73 741.605 454.505 742.216 451.973C742.55 450.336 742.71 448.666 742.692 446.992L742.907 438.342C742.95 437.783 742.896 437.221 742.748 436.682C742.546 436.165 742.243 435.699 741.859 435.312C739.531 432.72 736.471 430.974 733.127 430.331C730.872 429.907 728.57 429.991 726.292 429.791C721.87 429.409 717.504 427.982 713.082 428.314C706.128 428.845 699.944 433.884 696.666 440.318C695.515 442.617 694.308 444.618 691.839 444.618Z" fill="#464353"/>
<path d="M653.258 388.366C653.359 389.7 653.188 391.041 652.758 392.301C652.219 393.513 650.853 394.451 649.67 393.961C650.028 393.131 649.075 392.143 648.194 392.251C647.758 392.353 647.352 392.564 647.012 392.866C646.672 393.168 646.407 393.553 646.241 393.986C645.649 395.22 645.451 396.62 645.677 397.98C645.955 399.64 646.892 401.3 646.646 402.96C646.447 404.372 645.455 405.783 645.987 407.111C646.329 407.708 646.757 408.246 647.257 408.705C647.955 409.6 648.297 410.741 648.213 411.892C648.128 413.043 647.624 414.117 646.805 414.89L660.125 415.164C659.641 417.497 660.633 419.879 661.776 421.946C664.975 427.628 669.388 432.458 674.67 436.058C679.951 439.659 685.958 441.932 692.22 442.7C691.882 442.909 691.593 443.193 691.372 443.533C691.152 443.873 691.006 444.259 690.945 444.665C690.885 445.07 690.91 445.485 691.021 445.879C691.132 446.272 691.324 446.636 691.585 446.942C692.665 448.063 694.498 447.922 695.856 447.191C697.213 446.461 698.285 445.257 699.523 444.327C701.708 442.7 704.378 441.946 707.049 442.202C708.716 442.368 710.336 442.933 712.011 443.032C716.948 443.306 721.187 439.596 725.911 438.051C729.372 436.939 733.285 436.939 736.231 434.681C737.485 433.71 738.509 432.116 738.144 430.53C737.834 429.62 737.344 428.789 736.707 428.089C735.032 425.831 734.048 423.109 732.857 420.543C730.482 415.459 727.215 410.886 723.228 407.061C720.223 404.308 717.04 401.775 713.701 399.482C712.889 398.848 712.022 398.292 711.114 397.822C709.901 397.409 708.718 396.907 707.573 396.319C705.985 395.29 705.104 393.472 703.905 392.002C701.262 388.781 697.205 387.295 693.951 384.763C691.768 383.103 689.847 380.828 687.235 380.006C685.973 379.608 684.623 379.575 683.353 379.176C680.479 378.263 678.384 375.59 675.557 374.511C673.319 373.681 670.858 373.88 668.492 373.573C665.89 373.235 663.404 372.247 661.245 370.692C660.528 370.088 659.724 369.606 658.863 369.264C655.299 368.127 655.005 375.075 654.672 377.491C654.14 381.185 653.258 384.738 653.258 388.366Z" fill="#5DB075"/>
<path d="M656.735 411.694C657.331 418.476 652.433 425.051 653.862 431.701C654.163 433.12 654.751 434.465 654.965 435.852C655.561 439.795 653.306 443.531 651.155 446.826L632.714 475.135C631.974 476.38 631.089 477.523 630.078 478.538C626.546 481.859 621.259 481.477 616.631 482.457C613.377 483.149 610.304 484.564 607.621 486.608C607.504 486.704 607.426 486.844 607.404 486.998C607.382 487.152 607.417 487.309 607.502 487.438C608.263 488.534 609.275 489.413 610.446 489.993C611.617 490.573 612.908 490.836 614.202 490.758C614.686 491.431 614.202 492.419 613.535 492.884C612.542 493.606 611.153 493.797 610.986 495.557C610.917 496.168 611.033 496.787 611.32 497.325C612.069 498.511 613.226 499.35 614.551 499.666C620.902 501.708 627.832 498.122 632.611 493.241C637.39 488.359 640.819 482.2 645.519 477.227C648.114 474.479 651.075 472.121 653.735 469.456C659.077 464.143 663.221 457.676 667.23 451.193C668.539 449.312 669.528 447.208 670.151 444.975C670.644 442.767 670.421 440.434 670.993 438.242C671.739 435.378 673.747 433.087 675.414 430.688C678.693 425.973 680.876 420.211 680.44 414.4C680.003 408.589 676.574 402.869 671.334 400.893C669.711 400.213 667.92 400.099 666.23 400.57C664.086 401.259 662.499 403.118 661.03 404.895L657.529 409.12C656.656 410.054 655.966 411.156 655.497 412.366C655.27 412.973 655.217 413.636 655.344 414.275C655.471 414.913 655.772 415.499 656.212 415.961" fill="#FBBEBE"/>
<path d="M666.071 383.825C663.642 383.975 660.975 384.224 659.26 386.033C658.546 386.865 657.967 387.812 657.545 388.839C655.886 392.384 654.267 396.087 654.148 400.03C654.044 403.184 654.941 406.264 655.378 409.386C655.759 411.976 654.791 414.616 654.584 417.239C657.593 416.276 661.562 414.965 664.293 413.337C666.082 412.113 667.983 411.079 669.969 410.249C672.866 409.245 677.733 410.971 680.463 412.391C680.614 410.365 679.169 406.854 679.32 404.828C679.344 403.98 679.489 403.141 679.749 402.338C680.16 401.487 680.647 400.678 681.202 399.922C682.255 398.14 682.74 396.055 682.587 393.966C682.434 391.878 681.652 389.894 680.352 388.3C677.915 385.427 674.089 384.348 670.445 383.908C668.148 383.628 665.833 383.542 663.523 383.651" fill="#5DB075"/>
<path d="M306.422 325.747L290.767 302.005C290.767 302.005 290.474 296.127 289.45 294.757C288.426 293.387 289.227 290.332 289.227 290.332C289.227 290.332 290.331 288.672 289.378 288.498C288.426 288.323 289.227 284.604 289.227 284.604L289.156 278.652C289.156 278.652 290.037 272.924 289.307 271.554C289.091 271.182 288.983 270.753 288.996 270.319C289.008 269.884 289.141 269.463 289.378 269.105C289.378 269.105 290.251 265.826 289.378 264.954C288.505 264.083 288.719 259.002 288.934 254.951C289.148 250.9 287.402 248.617 287.402 248.011C287.402 247.405 281.622 241.444 281.622 240.905C281.622 240.365 277.963 238.157 275.764 237.584C273.565 237.011 272.477 236.513 272.549 236.206C272.62 235.899 269.112 234.687 269.112 234.687C269.112 234.687 266.039 234.454 264.864 232.852C263.69 231.25 260.101 230.785 260.014 230.768L259.943 230.453C259.943 230.337 259.903 230.22 259.879 230.104C260.169 229.621 260.434 229.122 260.673 228.61L260.879 228.145C262.165 228.154 263.422 227.745 264.476 226.975C264.994 226.525 265.418 225.967 265.72 225.337C266.022 224.706 266.196 224.018 266.23 223.314C266.292 221.902 265.997 220.499 265.373 219.246C264.73 217.876 263.785 216.448 264.118 214.954C264.261 214.315 264.626 213.75 264.817 213.119C265.101 211.887 264.913 210.588 264.293 209.5C263.737 208.396 262.967 207.416 262.348 206.345C261.563 204.974 261.037 203.458 260.8 201.879C260.756 201.039 260.565 200.214 260.236 199.446C259.904 198.905 259.466 198.444 258.95 198.093C256.66 196.384 253.896 195.509 251.083 195.603C249.091 195.669 247.114 196.234 245.13 195.976C243.947 195.764 242.784 195.447 241.653 195.03C239.2 194.266 236.366 193.959 234.23 195.428C232.095 196.898 231.245 199.787 229.793 202.07C228.515 204.062 226.617 205.739 225.665 207.881C225.665 207.881 225.665 207.798 225.665 207.765C225.425 208.252 225.241 208.768 225.117 209.3C224.844 210.992 224.956 212.726 225.442 214.364C225.55 215.246 225.972 216.053 226.625 216.622C227.348 217.112 228.34 216.996 229.181 217.154L229.086 217.585C228.229 221.877 228.946 226.348 231.095 230.112C233.243 233.877 236.666 236.659 240.684 237.908C240.684 238.065 240.684 238.215 240.684 238.373C240.682 238.811 240.656 239.249 240.605 239.684C240.605 239.684 233.246 238.099 231.269 239.17C229.293 240.24 225.419 241.079 224.831 241.66C224.244 242.241 222.783 241.818 221.465 245.404C220.148 248.99 220.005 252.651 218.29 254.337C216.575 256.022 215.734 257.159 215.654 258.38C215.575 259.6 215.877 259.907 215.218 260.289C214.559 260.671 213.63 262.273 213.9 262.887C214.001 263.307 213.979 263.749 213.838 264.156C213.696 264.563 213.441 264.916 213.106 265.17C212.759 265.425 212.482 265.771 212.302 266.173C212.122 266.575 212.047 267.019 212.082 267.462C212.082 267.462 211.638 269.122 210.614 269.529C209.589 269.935 208.931 272.426 208.931 272.426L205.612 276.411L199.039 268.806C198.546 268.238 197.857 267.897 197.123 267.858C196.39 267.819 195.672 268.086 195.126 268.599L191.895 271.637C190.65 271.953 189.524 272.653 188.664 273.646C187.964 274.406 187.397 275.288 186.989 276.253L185.227 277.913C184.67 278.635 184.329 279.512 184.247 280.435C184.165 281.358 184.346 282.286 184.766 283.102L188.981 287.975V288.016C187.488 288.154 186.069 288.758 184.909 289.751C178.622 295.562 178.558 300.9 179.495 303.341C180.432 305.782 188.418 315.171 188.418 315.171C188.418 315.171 193.054 321.472 199.746 324.817L199.698 324.875C199.56 325.026 199.431 325.184 199.309 325.349L199.198 325.498L199.095 325.648L198.976 325.83C198.944 325.878 198.915 325.928 198.889 325.98L198.761 326.195C198.732 326.243 198.706 326.293 198.682 326.345C198.627 326.444 198.579 326.544 198.531 326.644C198.514 326.676 198.498 326.709 198.484 326.743C198.42 326.876 198.357 327.009 198.301 327.158L198.238 327.308C198.198 327.407 198.166 327.507 198.126 327.615C198.102 327.68 198.08 327.747 198.063 327.814L197.968 328.113C197.942 328.183 197.921 328.256 197.904 328.329C197.904 328.437 197.841 328.545 197.817 328.661C197.793 328.777 197.777 328.794 197.761 328.869C197.745 328.943 197.682 329.226 197.65 329.416C197.65 329.483 197.65 329.558 197.61 329.632C197.571 329.707 197.571 329.89 197.547 330.022C197.523 330.155 197.547 330.205 197.547 330.305L197.499 330.678V330.977C197.499 331.118 197.499 331.259 197.46 331.409C197.42 331.558 197.46 331.583 197.46 331.675C197.46 331.915 197.46 332.156 197.46 332.413C197.317 341.346 197.817 342.641 197.817 342.641C198.143 343.466 198.676 344.184 199.359 344.72C200.042 345.256 200.85 345.59 201.699 345.688C202.115 345.722 202.534 345.699 202.945 345.621C206.755 344.932 215.646 343.33 218.822 343.961C220.719 344.326 224.22 343.778 226.713 343.288L227.371 343.156L227.824 344.675L229.269 344.26L230.499 344.999L231.293 345.472C232.738 350.586 238.596 348.842 238.596 348.842L239.986 349.672L254.108 350.054C255.693 351.053 257.368 351.887 259.109 352.545C259.339 352.623 259.576 352.679 259.816 352.711C261.136 352.823 262.462 352.848 263.785 352.786C264.864 352.786 265.698 352.711 265.698 352.711C265.698 352.711 265.555 348.701 265.349 344.21C269.726 344.097 274.094 343.723 278.431 343.089C285.973 341.711 289.116 334.539 290.275 330.703C290.622 332.27 290.869 333.859 291.014 335.46C291.322 336.868 291.714 338.254 292.188 339.611C292.593 340.695 293.126 341.721 293.776 342.666C299.333 340.682 295.967 337.685 294.8 336.406C293.633 335.128 295.594 334.04 295.594 334.04C295.594 334.04 297.134 332.97 296.983 331.982C296.832 330.994 296.761 329.923 301.746 329.998C306.732 330.072 306.422 325.747 306.422 325.747ZM229.166 277.008C229.229 277.44 229.959 282.147 230.547 283.384C230.722 284.201 230.778 285.04 230.714 285.874C227.768 285.625 224.696 285.493 224.696 285.493C224.783 285.605 224.838 285.74 224.855 285.883L224.387 285.775L223.72 285.609L229.15 276.967L229.166 277.008ZM218.401 294.907L223.505 295.737L223.934 295.803C223.79 296.626 223.702 297.458 223.672 298.294C223.672 298.377 223.783 298.468 223.95 298.576C223.879 298.995 223.847 299.42 223.855 299.846C223.934 300.261 226.316 301.174 229.054 301.93C229.015 302.088 228.983 302.237 228.943 302.37C226.522 301.042 222.72 300.419 222.283 299.431C221.846 298.443 208.891 293.711 208.891 293.711L207.605 293.039L211.01 293.711L211.947 293.612C214.069 294.189 216.225 294.622 218.401 294.907Z" fill="url(#paint0_linear_1641_19)"/>
<path d="M289.767 329.068C289.767 329.068 287.743 341.885 277.447 343.778C267.151 345.671 232.778 345.297 232.778 345.297C232.778 345.297 213.122 342.334 206.017 324.975C198.912 307.616 194.34 300.701 200.46 300.402C206.581 300.103 239.406 312.025 241.288 312.157C243.169 312.29 291.585 285.767 289.767 329.068Z" fill="#65617D"/>
<path opacity="0.05" d="M289.767 329.068C289.767 329.068 287.743 341.885 277.447 343.778C267.151 345.671 232.778 345.297 232.778 345.297C232.778 345.297 213.122 342.334 206.017 324.975C198.912 307.616 194.34 300.701 200.46 300.402C206.581 300.103 239.406 312.025 241.288 312.157C243.169 312.29 291.585 285.767 289.767 329.068Z" fill="black"/>
<path d="M197.595 343.338C197.914 344.159 198.439 344.874 199.116 345.408C199.792 345.941 200.594 346.273 201.437 346.368C201.854 346.395 202.272 346.37 202.683 346.294C206.454 345.613 215.297 344.019 218.417 344.633C220.291 344.99 223.76 344.451 226.228 343.969C227.872 343.645 229.078 343.338 229.078 343.338C229.078 343.338 226.173 333.252 225.816 332.953C225.458 332.654 212.757 324.651 212.757 324.651L202.707 323.896C201.354 324.107 200.131 324.857 199.293 325.988C198.238 327.333 197.325 329.533 197.261 333.144C197.094 342.035 197.595 343.338 197.595 343.338Z" fill="#3F3D56"/>
<path opacity="0.05" d="M197.595 343.338C197.914 344.159 198.439 344.874 199.116 345.408C199.792 345.941 200.594 346.273 201.437 346.368C200.452 345.04 199.541 343.654 198.706 342.218L198.762 334.862C198.562 332.845 198.817 330.807 199.506 328.911C200.195 327.015 201.3 325.315 202.731 323.946C202.731 323.946 197.436 324.319 197.285 333.194C197.134 342.068 197.595 343.338 197.595 343.338Z" fill="black"/>
<path opacity="0.1" d="M241.184 327.25L250.544 319.587L265.261 304.42L261.292 304.229C260.697 304.628 259.03 305.89 258.966 307.4C258.895 309.252 254.997 307.533 252.957 308.588C250.917 309.642 240.994 322.949 239.255 322.858C237.517 322.767 236.136 321.937 235.405 323.232L235.358 323.315L241.184 327.25Z" fill="black"/>
<path opacity="0.1" d="M199.27 326.005C199.603 326.171 199.944 326.337 200.286 326.486C207.391 329.674 216.162 336.348 216.821 337.56C217.218 338.299 222.307 341.529 226.228 343.953C227.872 343.629 229.078 343.322 229.078 343.322C229.078 343.322 226.173 333.235 225.816 332.936C225.458 332.638 212.757 324.635 212.757 324.635L202.707 323.879C201.34 324.093 200.107 324.856 199.27 326.005Z" fill="black"/>
<path d="M179.551 304.271C180.487 306.695 188.394 316.026 188.394 316.026C188.394 316.026 193.395 322.85 200.508 325.988C207.621 329.126 216.385 335.85 217.036 337.062C217.456 337.843 223.124 341.412 227.109 343.861L228.007 344.409L229.983 345.613L231.031 346.236C231.031 346.236 233.46 344.202 235.881 342.151C238.303 340.101 240.644 338.092 240.644 338C240.644 337.909 241.661 335.194 241.438 335.045C241.216 334.896 240.827 333.916 239.906 332.696C238.934 331.343 237.669 330.25 236.215 329.508C234.111 328.377 232.433 326.537 231.452 324.286C231.452 324.286 231.134 324.045 230.658 323.722C229.671 323.012 228.568 322.497 227.403 322.202C225.816 321.995 222.831 318.583 222.831 318.583C221.67 317.793 220.702 316.729 220.005 315.478C219.211 313.818 207.994 305.732 206.954 304.985L234.214 323.298L240.74 327.681L250.099 320.027L264.817 304.86L259.959 304.628C252.814 304.304 240.113 303.798 238.525 304.18C237.224 304.493 235.884 304.585 234.556 304.454C234.556 304.454 230.936 304.62 228.538 303.3C226.141 301.98 222.37 301.357 221.934 300.377C221.497 299.398 208.669 294.699 208.669 294.699C208.669 294.699 191.204 284.995 184.957 290.756C178.709 296.517 178.606 301.83 179.551 304.271Z" fill="#65617D"/>
<path d="M235.889 248.608L238.136 256.42L241.041 274.011L251.703 274.767L254.751 269.454L257.831 264.108C257.831 264.108 259.752 257.001 261.133 250.128C262.348 244.043 263.15 238.132 261.824 237.493C260.641 236.928 259.871 234.878 259.363 232.669C259.3 232.404 259.244 232.121 259.197 231.839C258.841 229.973 258.602 228.084 258.482 226.186C258.482 226.186 236.151 224.974 239.271 234.604C239.828 236.249 240.112 237.981 240.113 239.726C240.113 240.174 240.113 240.614 240.033 241.029C239.878 242.523 239.43 243.967 238.717 245.271C238.004 246.575 237.042 247.711 235.889 248.608Z" fill="#EE8E9E"/>
<path d="M231.253 247.322L232.047 260.604L233.857 271.903L235.889 277.141L237.707 305.765C237.707 305.765 255.172 307.882 259.443 305.724C259.758 305.597 260.033 305.382 260.237 305.101C265.373 296.99 263.69 273.497 263.69 273.497L265.643 258.33L264.341 250.46L261.165 250.111L258.736 249.837C258.736 249.837 258.188 250.543 257.395 251.639C255.243 254.602 251.29 260.447 251.56 262.879C251.917 266.2 251.123 269.628 249.885 270.159C248.646 270.691 247.638 271.604 247.424 270.691C247.115 269.925 247.038 269.079 247.202 268.267C247.424 266.972 246.257 263.028 246.257 263.028C246.257 263.028 244.304 258.404 244.447 256.437C244.59 254.469 244.233 252.186 243.653 251.655C243.074 251.124 242.272 250.593 242.923 248.168C243.574 245.744 240.065 241.021 240.065 241.021L231.253 247.322Z" fill="#E3E8F4"/>
<path opacity="0.1" d="M254.346 280.462L255.076 303.134L259.26 305.566C259.574 305.434 259.848 305.216 260.054 304.935C265.19 296.824 263.507 273.331 263.507 273.331L265.468 258.164L264.158 250.294L260.983 249.945C262.205 243.86 262.999 237.958 261.673 237.31C260.49 236.746 259.72 234.695 259.22 232.495L256.958 248.534C256.958 248.534 257.148 249.978 257.212 251.473C257.306 252.417 257.244 253.372 257.029 254.295C256.736 255.537 256.687 256.827 256.886 258.089C255.577 260.496 254.926 264.963 254.608 269.271C254.179 274.999 254.346 280.462 254.346 280.462Z" fill="black"/>
<path d="M259.284 232.097C259.284 232.097 262.943 232.57 264.102 234.164C265.261 235.758 268.31 235.99 268.31 235.99C268.31 235.99 271.787 237.202 271.715 237.501C271.644 237.8 272.731 238.265 274.891 238.871C277.05 239.477 280.694 241.677 280.694 242.191C280.694 242.706 286.417 248.633 286.417 249.24C286.417 249.846 288.156 252.12 287.941 256.138C287.727 260.156 287.505 265.27 288.378 266.1C289.251 266.93 288.378 270.193 288.378 270.193C288.143 270.548 288.012 270.966 287.999 271.398C287.986 271.829 288.093 272.256 288.307 272.625C289.029 273.987 288.156 279.673 288.156 279.673L288.235 285.592C288.235 285.592 287.441 289.303 288.378 289.461C289.315 289.619 288.235 291.279 288.235 291.279C288.235 291.279 287.441 294.309 288.449 295.679C289.458 297.049 289.751 302.876 289.751 302.876L305.271 326.461C305.271 326.461 305.493 330.786 300.563 330.712C295.634 330.637 295.697 331.699 295.848 332.679C295.999 333.659 294.467 334.73 294.467 334.73C294.467 334.73 292.514 335.792 293.673 337.079C294.832 338.366 298.166 341.329 292.657 343.297C292.008 342.361 291.474 341.343 291.069 340.267C290.602 338.929 290.215 337.562 289.91 336.174C289.91 336.174 289.402 330.404 288.386 329.649C287.37 328.894 287.513 325.249 287.513 325.249C287.513 325.249 288.965 322.294 286.933 321.098C284.901 319.903 255.465 302.835 255.465 302.835L254.751 280.155C254.751 280.155 254.243 263.394 257.291 257.782C257.092 256.52 257.141 255.229 257.434 253.988C257.942 252.627 257.363 248.227 257.363 248.227L259.284 232.097Z" fill="#3F3D56"/>
<path opacity="0.1" d="M240.279 241.228C240.279 241.228 232.992 239.659 231.031 240.722C229.07 241.785 225.236 242.615 224.68 243.212C224.125 243.81 222.656 243.37 221.346 246.932C220.036 250.493 219.901 254.137 218.226 255.806C216.551 257.475 215.694 258.612 215.623 259.824C215.551 261.036 215.837 261.343 215.186 261.717C214.535 262.09 213.598 263.693 213.876 264.299C214.154 264.905 228.959 278.254 228.959 278.254C228.959 278.254 229.69 283.334 230.34 284.621C230.991 285.908 229.618 303.657 228.165 304.869C226.713 306.081 237.922 305.981 237.922 305.981C237.922 305.981 238.43 294.359 238.866 293.728C239.303 293.097 238.573 280.686 238.573 280.686C238.573 280.686 238.501 270.068 239.446 267.262C240.39 264.456 240.24 255.125 240.24 255.125C240.24 255.125 241.073 249.53 242.089 248.227C243.105 246.923 240.279 241.228 240.279 241.228Z" fill="black"/>
<path d="M240.065 241.004C240.065 241.004 232.778 239.435 230.817 240.49C228.856 241.544 225.014 242.391 224.466 242.98C223.918 243.57 222.434 243.13 221.132 246.699C219.83 250.269 219.679 253.897 218.012 255.565C216.345 257.234 215.472 258.371 215.4 259.583C215.329 260.795 215.623 261.103 214.964 261.484C214.305 261.866 213.376 263.452 213.662 264.058C213.948 264.664 228.745 278.013 228.745 278.013C228.745 278.013 229.467 283.094 230.126 284.38C230.785 285.667 229.396 303.416 227.943 304.628C226.49 305.84 237.739 305.732 237.739 305.732C237.739 305.732 238.247 294.11 238.676 293.487C239.104 292.865 238.39 280.437 238.39 280.437C238.39 280.437 238.319 269.828 239.263 267.022C240.208 264.216 240.097 254.885 240.097 254.885C240.097 254.885 240.93 249.289 241.946 247.986C242.963 246.683 240.065 241.004 240.065 241.004Z" fill="#3F3D56"/>
<path opacity="0.1" d="M239.303 234.587C239.86 236.232 240.144 237.964 240.144 239.709C243.706 240.8 247.515 240.617 250.966 239.188C254.417 237.76 257.314 235.168 259.197 231.823C258.841 229.956 258.602 228.068 258.482 226.169C258.482 226.169 236.183 224.949 239.303 234.587Z" fill="black"/>
<path d="M228.276 222.6C228.274 227.05 229.904 231.333 232.832 234.563C235.76 237.794 239.761 239.726 244.011 239.962C248.261 240.198 252.436 238.719 255.674 235.831C258.912 232.942 260.967 228.865 261.414 224.438C261.862 220.012 260.668 215.575 258.079 212.042C255.491 208.51 251.704 206.15 247.501 205.452C243.298 204.753 238.998 205.767 235.489 208.286C231.98 210.804 229.529 214.635 228.642 218.988C228.398 220.175 228.276 221.386 228.276 222.6Z" fill="#EE8E9E"/>
<path d="M217.615 262.812L213.646 264.099C213.748 264.518 213.726 264.959 213.584 265.365C213.443 265.77 213.188 266.122 212.852 266.374C212.507 266.626 212.232 266.969 212.055 267.369C211.877 267.768 211.805 268.21 211.844 268.649C211.844 268.649 211.407 270.309 210.391 270.699C209.375 271.089 208.724 273.58 208.724 273.58L205.39 277.598C205.39 277.598 204.152 278.66 204.374 279.192C204.596 279.723 203.064 279.872 203.064 279.872L203.858 293.371L210.749 294.741L215.027 294.284L218.504 292.922L221.553 291.021L222.926 287.311L229.023 277.598L217.615 262.812Z" fill="#3F3D56"/>
<path d="M204.056 280.91C204.056 280.91 195.213 267.569 188.608 274.767C182.004 281.964 191.292 293.653 193.467 293.271C195.642 292.889 206.017 292.283 206.017 292.283L204.056 280.91Z" fill="#EE8E9E"/>
<path d="M224.89 275.142L185.825 254.29C185.224 253.969 184.487 254.219 184.18 254.848L168.947 286.058C168.64 286.687 168.879 287.457 169.48 287.778L208.546 308.63C209.147 308.951 209.883 308.701 210.19 308.072L225.423 276.862C225.73 276.233 225.492 275.463 224.89 275.142Z" fill="#3F3D56"/>
<path d="M221.257 276.995L186.589 258.491L173.254 285.813L207.922 304.317L221.257 276.995Z" fill="#5DB075"/>
<path d="M178.59 272.094C178.941 272.094 179.225 271.797 179.225 271.43C179.225 271.063 178.941 270.766 178.59 270.766C178.239 270.766 177.955 271.063 177.955 271.43C177.955 271.797 178.239 272.094 178.59 272.094Z" fill="#E6E8EC"/>
<path d="M216.115 292.64C216.698 292.64 217.171 292.146 217.171 291.536C217.171 290.926 216.698 290.432 216.115 290.432C215.532 290.432 215.059 290.926 215.059 291.536C215.059 292.146 215.532 292.64 216.115 292.64Z" fill="#E6E8EC"/>
<path d="M198.333 283.716C198.253 293.728 218.052 295.853 218.052 295.853L223.109 296.683L225.379 297.057L226.324 287.277C226.324 287.277 225.284 287.111 223.99 286.796C222.069 286.331 219.584 285.526 219.068 284.389C218.234 282.504 198.388 273.704 198.333 283.716Z" fill="#EE8E9E"/>
<path opacity="0.1" d="M228.642 218.988C229.097 219.024 229.526 219.223 229.856 219.553C230.412 220.176 230.444 221.28 231.174 221.662C231.447 221.782 231.748 221.817 232.039 221.761C233.968 221.479 235.08 219.204 236.937 218.573C238.017 218.283 239.159 218.386 240.176 218.864C240.589 219.004 240.961 219.253 241.256 219.586C241.875 220.416 241.438 221.662 241.724 222.674C242.121 224.086 243.732 224.642 245.122 224.824C246.511 225.007 248.083 225.115 249.012 226.211C249.319 226.622 249.539 227.096 249.659 227.603C249.778 228.109 249.792 228.637 249.702 229.15C249.619 229.507 249.619 229.88 249.702 230.237C250.083 231.374 251.965 231.2 252.457 230.304C252.822 229.648 252.711 229.108 253.56 228.925C254.167 228.875 254.776 228.986 255.331 229.249C256.808 229.78 258.365 230.03 259.927 229.988C260.92 227.772 261.455 225.362 261.495 222.915C261.535 220.468 261.081 218.039 260.161 215.789C259.241 213.538 257.877 211.517 256.157 209.856C254.438 208.196 252.402 206.934 250.184 206.154C247.966 205.374 245.615 205.093 243.286 205.33C240.956 205.566 238.701 206.315 236.668 207.527C234.634 208.738 232.869 210.386 231.487 212.361C230.105 214.337 229.138 216.595 228.65 218.988H228.642Z" fill="black"/>
<path d="M249.694 229.781C249.611 229.423 249.611 229.05 249.694 228.693C249.785 228.181 249.77 227.655 249.651 227.15C249.532 226.645 249.311 226.172 249.004 225.763C248.075 224.658 246.511 224.559 245.114 224.368C243.717 224.177 242.113 223.629 241.716 222.218C241.43 221.205 241.867 219.968 241.248 219.138C240.958 218.799 240.584 218.549 240.168 218.416C239.152 217.935 238.01 217.83 236.929 218.117C235.072 218.748 233.96 221.022 232.031 221.305C231.74 221.364 231.438 221.329 231.166 221.205C230.436 220.823 230.372 219.719 229.848 219.096C228.967 218.125 227.292 218.756 226.22 218.034C225.57 217.467 225.151 216.663 225.046 215.784C224.566 214.156 224.457 212.433 224.728 210.753C225.355 207.939 227.768 206.005 229.301 203.589C230.737 201.348 231.547 198.508 233.698 197.022C235.85 195.536 238.62 195.868 241.057 196.624C242.178 197.042 243.33 197.359 244.503 197.57C246.463 197.819 248.432 197.263 250.401 197.197C253.191 197.102 255.933 197.978 258.196 199.687C258.707 200.035 259.14 200.494 259.466 201.032C259.794 201.795 259.987 202.613 260.038 203.448C260.27 205.015 260.79 206.521 261.57 207.881C262.173 208.952 262.943 209.915 263.491 211.019C264.104 212.101 264.291 213.39 264.015 214.614C263.825 215.236 263.459 215.801 263.317 216.44C262.999 217.918 263.928 219.337 264.563 220.699C265.181 221.945 265.474 223.339 265.412 224.741C265.378 225.44 265.206 226.124 264.907 226.75C264.608 227.376 264.188 227.93 263.674 228.378C262.596 229.16 261.31 229.569 259.998 229.548C258.407 229.599 256.821 229.348 255.315 228.809C254.759 228.55 254.151 228.439 253.544 228.486C252.695 228.668 252.806 229.208 252.441 229.864C251.957 230.744 250.083 230.918 249.694 229.781Z" fill="#3F3D56"/>
<path opacity="0.1" d="M240.748 327.698L250.107 320.044L264.825 304.877L259.967 304.645C259.396 305.184 259.032 305.921 258.943 306.72C258.871 308.571 254.973 306.844 252.933 307.907C250.893 308.97 240.97 322.269 239.232 322.178C237.493 322.086 236.112 321.256 235.381 322.543L235.334 322.626C235.044 322.975 234.654 323.217 234.222 323.315L240.748 327.698Z" fill="black"/>
<path d="M221.894 327.167L226.594 342.865L227.332 345.356L229.57 344.716L234.508 343.297L256.482 336.988C259.25 336.862 261.958 336.109 264.42 334.779C268.574 332.345 273.328 331.261 278.074 331.666C280.98 331.949 284.21 330.637 286.894 325.457C286.894 325.457 292.982 306.654 277.614 301.266C262.245 295.878 261.507 304.13 261.507 304.13L261.292 304.263C260.697 304.661 259.03 305.923 258.966 307.434C258.895 309.285 254.997 307.567 252.957 308.621C250.917 309.675 240.994 322.983 239.255 322.891C237.517 322.8 236.136 321.97 235.405 323.265L235.358 323.348C234.818 324.12 233.206 324.303 232.135 324.328C231.801 324.346 231.468 324.346 231.134 324.328L230.991 324.369L229.88 324.718L221.894 327.167Z" fill="#65617D"/>
<path opacity="0.1" d="M223.109 296.691L225.379 297.065L226.324 287.286C226.324 287.286 225.284 287.12 223.99 286.804C224.331 288.174 223.553 293.445 223.109 296.691Z" fill="black"/>
<path opacity="0.1" d="M282.408 250.983C282.408 250.983 289.148 248.932 287.481 268.956C286.324 281.177 281.356 292.661 273.343 301.639C273.343 301.639 258.982 308.231 252.528 307.168C246.074 306.105 241.367 305.881 241.367 305.881C239.333 304.808 237.108 304.188 234.834 304.063C231.214 303.914 223.601 301.573 223.45 300.801C223.299 300.029 225.339 288.896 224.466 288.066C224.466 288.066 234.619 288.498 235.635 289.261C236.651 290.025 238.104 289.486 239.192 289.261C240.279 289.037 243.613 286.015 250.21 288.672C250.21 288.672 252.457 288.896 253.33 288.29C254.042 287.943 254.853 287.89 255.6 288.141C256.165 287.945 256.699 287.665 257.188 287.311C257.402 287.012 259.149 287.311 259.149 287.311C259.253 287.359 259.366 287.384 259.479 287.383C259.593 287.382 259.706 287.355 259.809 287.305C259.912 287.254 260.003 287.181 260.077 287.091C260.151 287 260.205 286.894 260.236 286.779C260.466 286.161 260.811 285.596 261.253 285.119C261.253 285.119 263.205 273.596 266.905 269.271C267.2 269.001 267.427 268.659 267.565 268.275C267.704 267.892 267.75 267.478 267.698 267.071C267.397 265.843 273.708 248.55 282.408 250.983Z" fill="black"/>
<path d="M282.226 249.439C282.226 249.439 288.973 247.396 287.306 267.412C286.152 279.634 281.184 291.119 273.168 300.095C273.168 300.095 258.808 306.695 252.354 305.632C245.9 304.57 241.184 304.321 241.184 304.321C239.154 303.246 236.931 302.627 234.659 302.503C231.031 302.345 223.418 300.012 223.275 299.24C223.132 298.468 225.157 287.335 224.291 286.497C224.291 286.497 234.445 286.937 235.461 287.701C236.477 288.464 237.922 287.917 239.009 287.701C240.097 287.485 243.431 284.455 250.036 287.103C250.036 287.103 252.282 287.335 253.148 286.729C253.86 286.385 254.668 286.329 255.418 286.572C255.98 286.371 256.515 286.092 257.006 285.742C257.22 285.434 258.958 285.742 258.958 285.742C259.062 285.79 259.175 285.815 259.289 285.814C259.403 285.813 259.515 285.786 259.618 285.736C259.721 285.685 259.813 285.612 259.887 285.522C259.961 285.431 260.015 285.325 260.046 285.21C260.276 284.592 260.621 284.027 261.062 283.55C261.062 283.55 263.023 272.027 266.722 267.702C267.017 267.432 267.244 267.09 267.383 266.706C267.521 266.323 267.567 265.909 267.516 265.502C267.222 264.307 273.525 247.039 282.226 249.439Z" fill="#3F3D56"/>
<path opacity="0.1" d="M229.856 324.676L239.43 336.797L239.493 336.73C239.565 336.498 240.51 333.924 240.287 333.767C240.065 333.609 238.406 329.823 235.072 328.229C233.376 327.365 231.952 326.011 230.968 324.328L229.856 324.676Z" fill="black"/>
<path opacity="0.1" d="M229.983 345.654L231.031 346.277C231.031 346.277 233.46 344.243 235.881 342.193C238.303 340.142 240.645 338.133 240.645 338.042C240.645 337.95 241.661 335.236 241.438 335.086C241.216 334.937 240.827 333.957 239.906 332.737C233.413 330.836 237.525 335.551 238.096 335.767C238.096 335.767 230.198 333.866 229.761 342.873C229.723 343.806 229.798 344.741 229.983 345.654Z" fill="black"/>
<path d="M237.993 349.465L239.374 350.295L253.37 350.669C254.939 351.666 256.598 352.501 258.323 353.159C258.552 353.23 258.786 353.283 259.022 353.317C260.321 353.428 261.625 353.453 262.928 353.392C263.999 353.392 264.825 353.317 264.825 353.317C264.825 353.317 264.166 334.862 263.666 332.92C263.428 331.99 262.253 332.189 261.094 332.654C260.225 333.026 259.386 333.47 258.585 333.982C258.585 333.982 252.647 334.588 251.703 335.12C250.758 335.651 248.075 334.813 246.408 335.12C244.741 335.427 241.764 333.069 241.764 333.069C233.643 330.263 238.215 335.493 238.795 335.726C238.795 335.726 230.856 333.825 230.452 342.832C230.047 351.839 237.993 349.465 237.993 349.465Z" fill="#3F3D56"/>
<path d="M258.228 342.342C258.379 346.161 261.229 350.901 262.928 353.408C263.999 353.408 264.825 353.333 264.825 353.333C264.825 353.333 264.166 334.879 263.666 332.936C263.428 332.007 262.253 332.206 261.094 332.671C259.689 335.427 258.101 339.254 258.228 342.342Z" fill="#565387"/>
<path opacity="0.1" d="M258.228 342.342C258.379 346.161 261.229 350.901 262.928 353.408C263.999 353.408 264.825 353.333 264.825 353.333C264.825 353.333 264.166 334.879 263.666 332.936C263.428 332.007 262.253 332.206 261.094 332.671C259.689 335.427 258.101 339.254 258.228 342.342Z" fill="black"/>
<path opacity="0.05" d="M255.831 342.849C256.799 346.534 256.783 350.669 258.323 353.176C258.552 353.247 258.786 353.3 259.022 353.333C260.321 353.444 261.626 353.469 262.928 353.408C263.999 353.408 264.825 353.333 264.825 353.333C264.825 353.333 264.166 334.879 263.666 332.936C263.428 332.007 262.253 332.206 261.094 332.671C260.225 333.043 259.386 333.487 258.585 333.999C258.585 333.999 254.6 338.125 255.831 342.849Z" fill="black"/>
<path opacity="0.1" d="M207.549 305.433C207.549 305.433 214.503 307.791 220.394 316.175L207.549 305.433Z" fill="black"/>
<g opacity="0.1">
<path opacity="0.1" d="M264.039 214.431C264.039 214.489 264.039 214.539 263.999 214.597C263.932 214.813 263.85 215.024 263.753 215.228C263.83 214.955 263.925 214.689 264.039 214.431Z" fill="black"/>
<path opacity="0.1" d="M224.712 210.753C224.83 210.222 225.011 209.709 225.252 209.226C225.252 209.35 225.173 209.483 225.141 209.616C224.876 211.296 224.988 213.018 225.466 214.647C225.572 215.523 225.988 216.326 226.633 216.896C227.713 217.619 229.388 216.988 230.269 217.959C230.825 218.581 230.856 219.686 231.587 220.067C231.859 220.192 232.161 220.227 232.452 220.167C234.381 219.885 235.492 217.61 237.35 216.979C238.431 216.688 239.574 216.794 240.589 217.278C241.005 217.411 241.379 217.661 241.669 218C242.288 218.831 241.851 220.067 242.137 221.08C242.534 222.492 244.145 223.048 245.535 223.23C246.924 223.413 248.496 223.521 249.424 224.625C249.732 225.034 249.953 225.507 250.072 226.012C250.191 226.518 250.206 227.044 250.115 227.556C250.032 227.913 250.032 228.286 250.115 228.643C250.496 229.78 252.377 229.606 252.87 228.709C253.235 228.054 253.124 227.514 253.973 227.331C254.58 227.285 255.188 227.396 255.743 227.655C257.249 228.194 258.836 228.445 260.427 228.394C261.739 228.415 263.024 228.006 264.102 227.223C264.574 226.836 264.959 226.346 265.23 225.787C264.985 226.804 264.427 227.708 263.642 228.361C262.564 229.143 261.279 229.552 259.967 229.531C258.376 229.582 256.789 229.332 255.283 228.792C254.727 228.534 254.119 228.422 253.513 228.469C252.663 228.651 252.774 229.191 252.417 229.847C251.917 230.743 250.036 230.918 249.655 229.78C249.575 229.423 249.575 229.051 249.655 228.693C249.745 228.181 249.731 227.655 249.611 227.15C249.492 226.644 249.272 226.171 248.964 225.762C248.035 224.658 246.471 224.559 245.074 224.368C243.677 224.177 242.073 223.629 241.677 222.218C241.391 221.205 241.827 219.968 241.208 219.138C240.92 218.8 240.55 218.55 240.136 218.415C239.118 217.935 237.973 217.83 236.89 218.117C235.04 218.748 233.921 221.022 231.992 221.304C231.7 221.364 231.398 221.329 231.126 221.205C230.396 220.823 230.333 219.719 229.809 219.096C228.927 218.125 227.26 218.756 226.181 218.034C225.531 217.466 225.111 216.662 225.006 215.784C224.534 214.154 224.433 212.431 224.712 210.753Z" fill="black"/>
</g>
<path opacity="0.1" d="M265.166 271.454C263.833 273.331 262.316 275.066 261.141 277.041C259.865 278.989 259.245 281.326 259.379 283.683C260.594 282.379 261.157 280.57 261.919 278.934C263.221 276.161 265.158 273.812 266.802 271.272C267.111 270.782 269.112 267.951 268.103 267.835C267.262 267.71 265.619 270.815 265.166 271.454Z" fill="black"/>
<path d="M272.311 449.084C273.271 452.305 274.24 455.535 275.438 458.664C277.598 464.105 280.316 469.286 283.544 474.114C285.625 477.293 287.861 480.357 290.244 483.295C293.228 486.973 296.594 490.675 297.61 495.374C298.222 498.089 298.015 500.92 298.269 503.676C298.523 506.432 299.389 509.387 301.54 511.048C303.072 512.235 305.033 512.592 306.914 512.899C308.264 513.123 309.947 513.198 310.645 511.977C310.89 511.479 311.017 510.927 311.018 510.367L311.344 506.307C311.407 505.427 311.709 504.307 312.55 504.265C313.392 504.224 313.813 505.394 314.527 505.925C315.48 506.623 316.909 505.925 317.433 504.871C317.868 503.73 317.896 502.463 317.512 501.302C316.934 498.991 315.894 496.834 314.462 494.974C313.029 493.114 311.236 491.592 309.2 490.509C307.787 489.913 306.431 489.177 305.152 488.309C303.853 487.128 302.776 485.703 301.976 484.109C294.61 471.424 287.203 458.673 282.003 444.867C280.979 442.4 280.287 439.796 279.947 437.13C279.693 434.415 280.098 431.684 280.265 428.961C280.573 424.07 280.139 419.158 278.979 414.408C278.726 413.162 278.278 411.967 277.653 410.872C275.51 407.477 270.509 406.97 267.333 409.311C266.164 410.252 265.195 411.437 264.487 412.79C263.779 414.143 263.348 415.636 263.221 417.173C262.991 419.929 264.507 422.785 265.277 425.35C267.611 433.27 269.956 441.181 272.311 449.084Z" fill="#A1616A"/>
<path opacity="0.05" d="M272.311 449.084C273.271 452.305 274.24 455.535 275.438 458.664C277.598 464.105 280.316 469.286 283.544 474.114C285.625 477.293 287.861 480.357 290.244 483.295C293.228 486.973 296.594 490.675 297.61 495.374C298.222 498.089 298.015 500.92 298.269 503.676C298.523 506.432 299.389 509.387 301.54 511.048C303.072 512.235 305.033 512.592 306.914 512.899C308.264 513.123 309.947 513.198 310.645 511.977C310.89 511.479 311.017 510.927 311.018 510.367L311.344 506.307C311.407 505.427 311.709 504.307 312.55 504.265C313.392 504.224 313.813 505.394 314.527 505.925C315.48 506.623 316.909 505.925 317.433 504.871C317.868 503.73 317.896 502.463 317.512 501.302C316.934 498.991 315.894 496.834 314.462 494.974C313.029 493.114 311.236 491.592 309.2 490.509C307.787 489.913 306.431 489.177 305.152 488.309C303.853 487.128 302.776 485.703 301.976 484.109C294.61 471.424 287.203 458.673 282.003 444.867C280.979 442.4 280.287 439.796 279.947 437.13C279.693 434.415 280.098 431.684 280.265 428.961C280.573 424.07 280.139 419.158 278.979 414.408C278.726 413.162 278.278 411.967 277.653 410.872C275.51 407.477 270.509 406.97 267.333 409.311C266.164 410.252 265.195 411.437 264.487 412.79C263.779 414.143 263.348 415.636 263.221 417.173C262.991 419.929 264.507 422.785 265.277 425.35C267.611 433.27 269.956 441.181 272.311 449.084Z" fill="black"/>
<path d="M226.03 584.716C227.466 585.238 228.993 585.431 230.507 585.281C230.618 583.986 232.285 583.695 233.524 583.761C234.123 583.741 234.716 583.884 235.246 584.176C235.556 584.384 235.794 584.683 236.096 584.899C236.634 585.207 237.237 585.37 237.85 585.372L244.296 585.936C247.17 586.194 250.163 586.426 252.854 585.355C253.39 585.178 253.866 584.843 254.227 584.392C254.957 583.296 254.227 581.727 253.219 580.931C252.211 580.134 250.909 579.777 249.893 578.963C247.654 577.178 247.345 573.841 246.162 571.168C245.321 569.482 244.284 567.913 243.074 566.494C242.197 565.276 241.175 564.18 240.033 563.232C237.445 561.281 234.476 561.322 231.436 561.04C229.293 560.841 227.276 560.708 225.736 562.7C223.831 565.191 224.593 570.172 224.712 573.077C224.861 576.987 225.301 580.878 226.03 584.716Z" fill="#514E7F"/>
<path opacity="0.05" d="M226.03 584.716C227.466 585.238 228.993 585.431 230.507 585.281C230.618 583.986 232.285 583.695 233.524 583.761C234.123 583.741 234.716 583.884 235.246 584.176C235.556 584.384 235.794 584.683 236.096 584.899C236.634 585.207 237.237 585.37 237.85 585.372L244.296 585.936C247.17 586.194 250.163 586.426 252.854 585.355C253.39 585.178 253.866 584.843 254.227 584.392C254.957 583.296 254.227 581.727 253.219 580.931C252.211 580.134 250.909 579.777 249.893 578.963C247.654 577.178 247.345 573.841 246.162 571.168C245.321 569.482 244.284 567.913 243.074 566.494C242.197 565.276 241.175 564.18 240.033 563.232C237.445 561.281 234.476 561.322 231.436 561.04C229.293 560.841 227.276 560.708 225.736 562.7C223.831 565.191 224.593 570.172 224.712 573.077C224.861 576.987 225.301 580.878 226.03 584.716Z" fill="black"/>
<path d="M228.634 453.592C226.665 454.256 225.808 456.821 226.173 458.955C226.538 461.089 227.761 462.931 228.769 464.824C231.642 470.195 232.881 476.339 235.294 481.942C237.096 486.093 239.533 489.995 241.311 494.195C243.09 498.396 244.193 503.136 243.113 507.594C242.589 509.761 241.573 511.745 240.899 513.878C240.231 516.191 239.794 518.57 239.597 520.976C238.723 529.152 238.566 537.394 239.128 545.599C239.133 546.599 239.333 547.588 239.716 548.504C240.121 549.335 240.819 550.165 240.51 550.995C240.375 551.335 240.081 551.584 239.938 551.916C239.525 552.846 240.351 553.834 241.105 554.498C240.97 554.748 240.789 554.967 240.572 555.142C240.356 555.317 240.108 555.446 239.843 555.519C240.384 555.88 240.799 556.412 241.028 557.039C241.257 557.665 241.287 558.352 241.113 558.998C240.446 559.106 240.406 560.177 240.827 560.741C241.248 561.306 241.915 561.654 242.216 562.293C242.394 562.814 242.375 563.386 242.162 563.892C241.949 564.399 241.56 564.801 241.073 565.016C240.081 565.416 239 565.502 237.961 565.265C236.201 565.009 234.463 564.609 232.762 564.07C231.873 563.887 231.076 563.375 230.519 562.628C229.962 561.881 229.682 560.948 229.729 560.002C229.336 556.623 229.217 553.216 229.372 549.816C229.65 533.346 229.372 516.859 228.689 500.397C228.411 493.755 226.506 487.322 224.053 481.212C222.697 478.089 221.19 475.041 219.536 472.08C215.996 465.306 212.868 457.801 213.678 450.122C213.765 449.292 214.051 448.304 214.837 448.171C215.144 448.137 215.454 448.191 215.734 448.329C217.365 449.125 218.943 450.035 220.457 451.052C222.946 452.578 225.752 453.45 228.634 453.592Z" fill="#464353"/>
<path opacity="0.05" d="M228.634 453.592C226.665 454.256 225.808 456.821 226.173 458.955C226.538 461.089 227.761 462.931 228.769 464.824C231.642 470.195 232.881 476.339 235.294 481.942C237.096 486.093 239.533 489.995 241.311 494.195C243.09 498.396 244.193 503.136 243.113 507.594C242.589 509.761 241.573 511.745 240.899 513.878C240.231 516.191 239.794 518.57 239.597 520.976C238.723 529.152 238.566 537.394 239.128 545.599C239.133 546.599 239.333 547.588 239.716 548.504C240.121 549.335 240.819 550.165 240.51 550.995C240.375 551.335 240.081 551.584 239.938 551.916C239.525 552.846 240.351 553.834 241.105 554.498C240.97 554.748 240.789 554.967 240.572 555.142C240.356 555.317 240.108 555.446 239.843 555.519C240.384 555.88 240.799 556.412 241.028 557.039C241.257 557.665 241.287 558.352 241.113 558.998C240.446 559.106 240.406 560.177 240.827 560.741C241.248 561.306 241.915 561.654 242.216 562.293C242.394 562.814 242.375 563.386 242.162 563.892C241.949 564.399 241.56 564.801 241.073 565.016C240.081 565.416 239 565.502 237.961 565.265C236.201 565.009 234.463 564.609 232.762 564.07C231.873 563.887 231.076 563.375 230.519 562.628C229.962 561.881 229.682 560.948 229.729 560.002C229.336 556.623 229.217 553.216 229.372 549.816C229.65 533.346 229.372 516.859 228.689 500.397C228.411 493.755 226.506 487.322 224.053 481.212C222.697 478.089 221.19 475.041 219.536 472.08C215.996 465.306 212.868 457.801 213.678 450.122C213.765 449.292 214.051 448.304 214.837 448.171C215.144 448.137 215.454 448.191 215.734 448.329C217.365 449.125 218.943 450.035 220.457 451.052C222.946 452.578 225.752 453.45 228.634 453.592Z" fill="black"/>
<path d="M202.016 433.568C200.99 432.879 199.806 432.489 198.587 432.439C197.174 432.514 195.967 433.485 194.864 434.415C193.556 435.465 192.315 436.602 191.149 437.819C188.733 440.512 187.049 443.832 186.273 447.434C185.497 451.037 185.656 454.791 186.735 458.307C187.902 461.968 190.037 465.198 192.149 468.361L196.436 474.803C202.977 484.623 209.518 494.444 216.369 504.033C216.37 504.268 216.443 504.498 216.578 504.687C216.712 504.876 216.9 505.017 217.115 505.087C217.361 505.153 217.671 505.145 217.822 505.361C217.891 505.495 217.922 505.648 217.909 505.801C217.894 506.51 217.765 507.212 217.528 507.876C217.417 508.095 217.388 508.35 217.448 508.59C217.671 509.13 218.607 508.823 218.909 509.329C219.108 509.661 218.861 510.093 218.6 510.375C218.338 510.657 218.012 510.973 218.06 511.363C218.107 511.753 218.758 512.193 218.734 512.675C218.734 512.957 218.496 513.173 218.33 513.397C218.096 513.754 217.99 514.186 218.029 514.616C218.068 515.047 218.25 515.45 218.544 515.754C218.996 520.437 216.559 524.886 216.075 529.552C215.281 536.924 218.496 544.121 218.885 551.518C218.862 552.35 219.014 553.178 219.33 553.942C219.989 555.22 221.711 555.992 221.624 557.445C221.499 558.042 221.338 558.63 221.14 559.205C221.005 560.035 221.386 560.866 221.402 561.696C221.418 562.526 220.711 563.547 219.965 563.215C220.526 565.174 221.026 567.15 221.465 569.142L236.469 570.437C236.631 569.027 236.585 567.599 236.334 566.203C236.024 564.684 235.373 563.273 235.032 561.77C234.81 561.031 234.748 560.249 234.849 559.481C234.951 558.713 235.214 557.978 235.619 557.329C235.228 557.334 234.848 557.194 234.546 556.934C234.244 556.675 234.039 556.312 233.968 555.909C233.843 555.1 233.856 554.273 234.008 553.469C234.405 549.376 232.762 545.341 232.809 541.232C232.857 537.995 233.944 534.881 234.492 531.702C235.667 524.895 234.445 517.514 237.342 511.297C239.096 507.552 241.526 503.402 239.557 499.774C238.588 497.981 236.874 496.752 235.754 495.059C234.842 493.458 234.157 491.727 233.722 489.92C231.412 482.448 227.673 475.508 224.395 468.402C223.485 466.621 222.809 464.719 222.386 462.749C222.155 461.019 222.07 459.272 222.132 457.527C222.132 454.394 221.949 451.264 221.584 448.154C221.51 446.792 221.138 445.466 220.497 444.278C219.849 443.379 219.04 442.62 218.115 442.044C213.193 438.516 207.335 436.499 202.016 433.568Z" fill="#464353"/>
<path d="M219.997 590.469C221.437 590.984 222.966 591.174 224.482 591.025C224.593 589.73 226.252 589.44 227.491 589.506C228.09 589.485 228.683 589.629 229.213 589.921C229.523 590.129 229.761 590.436 230.071 590.643C230.607 590.955 231.211 591.118 231.825 591.117L238.263 591.681C241.145 591.938 244.129 592.179 246.829 591.1C247.364 590.925 247.838 590.59 248.194 590.137C248.924 589.041 248.194 587.48 247.186 586.684C246.178 585.887 244.876 585.521 243.868 584.708C241.621 582.923 241.319 579.594 240.129 576.921C239.295 575.23 238.26 573.657 237.048 572.239C236.169 571.023 235.144 569.929 234 568.985C231.42 567.025 228.443 567.067 225.411 566.785C223.259 566.585 221.243 566.461 219.711 568.445C217.806 570.935 218.568 575.916 218.679 578.83C218.828 582.74 219.269 586.631 219.997 590.469Z" fill="#514E7F"/>
<path d="M286.497 406.397C294.704 406.397 301.357 399.44 301.357 390.857C301.357 382.274 294.704 375.316 286.497 375.316C278.289 375.316 271.636 382.274 271.636 390.857C271.636 399.44 278.289 406.397 286.497 406.397Z" fill="#A1616A"/>
<path d="M272.477 395.472C270.35 397.39 267.294 397.531 264.499 397.83C258.524 398.472 252.708 400.232 247.329 403.027C246.584 403.362 245.91 403.848 245.344 404.455C244.861 405.113 244.518 405.872 244.336 406.68C243.825 408.428 243.633 410.261 243.772 412.084C243.967 413.852 244.453 415.571 245.209 417.165C247.272 421.63 250.454 425.426 254.418 428.148C255.116 428.692 255.909 429.089 256.752 429.318C258.704 429.742 260.594 428.563 262.523 428.031C264.277 427.553 266.127 427.613 267.849 428.206C269.437 428.77 271.176 429.8 272.747 429.111C273.753 428.522 274.535 427.59 274.962 426.471C276.48 423.471 277.835 420.383 279.019 417.223C279.444 415.989 279.934 414.78 280.487 413.603C282.21 410.175 285.187 407.526 286.671 403.965C286.822 403.693 286.913 403.39 286.938 403.077C286.962 402.764 286.92 402.449 286.814 402.155C286.539 401.758 286.158 401.455 285.719 401.284C283.524 399.969 281.523 398.328 279.781 396.41C278.804 395.431 277.01 392.783 275.605 392.55C274.025 392.268 273.549 394.509 272.477 395.472Z" fill="#A1616A"/>
<path d="M272.827 427.052C271.104 427.882 269.072 427.525 267.206 427.118C262.396 426.064 257.529 425.001 253.076 422.826C251.685 422.269 250.479 421.3 249.607 420.037C249.065 418.957 248.736 417.774 248.638 416.559L247.845 410.747C247.559 408.73 248.051 406.862 248.099 404.82C248.129 404.594 248.116 404.363 248.06 404.142C248.004 403.922 247.907 403.714 247.773 403.533C247.501 403.295 247.15 403.178 246.797 403.21C244.566 403.251 243.217 405.7 241.653 407.36C240.749 408.319 239.669 409.076 238.477 409.585C237.048 410.2 235.302 410.631 234.707 412.126C234.468 412.748 234.5 413.454 234.246 414.076C233.246 416.567 228.983 415.737 227.895 418.227C227.586 418.925 227.61 419.796 227.102 420.344C226.594 420.892 225.641 420.884 224.855 421.017C221.751 421.548 220.251 425.292 217.599 427.06C215.369 428.554 212.495 428.521 210.09 429.683C208.756 430.331 207.573 431.344 206.16 431.767C204.747 432.191 203.151 431.966 201.635 432.008C201.474 431.992 201.31 432.011 201.156 432.064C201.002 432.117 200.86 432.202 200.738 432.315C200.644 432.465 200.582 432.635 200.556 432.813C200.53 432.99 200.54 433.172 200.587 433.344C201.323 438.253 203.268 442.877 206.231 446.761C209.195 450.645 213.074 453.654 217.488 455.493C218.001 455.664 218.487 455.91 218.933 456.224C220.283 457.278 220.521 459.544 222.053 460.292C222.606 460.495 223.202 460.534 223.775 460.406C224.348 460.277 224.876 459.984 225.3 459.561C226.145 458.71 226.94 457.806 227.681 456.855C229.08 455.327 230.916 454.316 232.912 453.974C234.754 453.667 236.81 453.891 238.303 452.704C238.913 452.118 239.481 451.485 240.001 450.811C241.107 449.732 242.42 448.912 243.852 448.404C247.765 446.787 251.9 445.837 256.101 445.589C260.014 445.365 264.039 445.739 267.738 444.411C268.699 444.099 269.584 443.575 270.334 442.875C271.13 441.975 271.721 440.9 272.065 439.728C273.399 435.65 273.662 431.273 272.827 427.052Z" fill="#5DB075"/>
<path d="M253.671 404.147C254.767 404.04 255.87 404.147 256.974 404.147C258.268 404.147 259.546 403.815 260.84 403.807C262.889 403.842 264.874 404.561 266.504 405.859C268.135 407.156 269.327 408.965 269.905 411.021C270.014 411.35 270.034 411.703 269.961 412.042C269.918 412.21 269.819 412.356 269.682 412.453C269.545 412.551 269.379 412.593 269.215 412.574C268.785 411.346 268.223 410.173 267.54 409.079C266.309 407.322 264.556 406.043 262.554 405.443C260.559 404.851 258.457 404.772 256.426 405.21C255.577 405.376 254.751 405.609 253.925 405.849L249.956 406.995C249.226 407.202 248.488 407.41 247.781 407.684C247.233 407.9 246.297 408.688 245.757 408.722C245.026 408.722 245.614 408.058 245.939 407.609C246.588 406.685 247.495 405.994 248.535 405.633C250.185 404.927 251.909 404.428 253.671 404.147Z" fill="#5DB075"/>
<path d="M263.69 450.827C264.65 454.049 265.611 457.278 266.817 460.408C268.974 465.85 271.692 471.031 274.923 475.857C277.004 479.036 279.24 482.1 281.623 485.038C284.599 488.716 287.926 492.419 288.989 497.109C289.601 499.832 289.394 502.663 289.648 505.411C289.902 508.158 290.768 511.122 292.911 512.782C294.451 513.961 296.412 514.318 298.293 514.634C299.635 514.858 301.318 514.933 302.024 513.712C302.264 513.212 302.391 512.661 302.397 512.102L302.715 508.042C302.786 507.162 303.088 506.042 303.921 506C304.755 505.959 305.192 507.129 305.906 507.66C306.859 508.358 308.288 507.66 308.812 506.606C309.243 505.464 309.271 504.198 308.891 503.036C308.31 500.727 307.269 498.572 305.837 496.712C304.405 494.852 302.613 493.33 300.579 492.244C299.164 491.646 297.806 490.91 296.523 490.044C295.221 488.862 294.144 487.434 293.348 485.835C285.973 473.159 278.566 460.408 273.375 446.594C272.351 444.129 271.656 441.528 271.311 438.865C271.064 436.15 271.461 433.419 271.636 430.696C271.944 425.805 271.51 420.893 270.35 416.143C270.097 414.895 269.646 413.7 269.016 412.607C266.881 409.203 261.872 408.705 258.696 411.046C257.526 411.986 256.556 413.171 255.846 414.524C255.137 415.877 254.705 417.37 254.576 418.908C254.346 421.664 255.87 424.52 256.632 427.085C258.977 435.01 261.329 442.924 263.69 450.827Z" fill="#A1616A"/>
<path d="M308.113 379.865C308.232 378.57 307.121 377.375 305.858 376.545C304.529 375.832 303.253 375.016 302.04 374.104C300.913 373.083 300.294 371.755 299.166 370.734C297.885 369.713 296.43 368.956 294.88 368.5C291.581 367.291 288.118 366.644 284.623 366.583C281.091 366.583 277.479 367.413 274.819 369.297C274.163 369.729 273.596 370.293 273.152 370.958C272.733 371.755 272.463 372.628 272.358 373.531C271.725 376.317 270.867 379.041 269.794 381.675C268.691 384.606 267.516 387.644 264.92 389.91C262.142 392.326 257.895 393.721 256.061 396.643C255.858 396.903 255.716 397.208 255.646 397.535C255.575 397.862 255.579 398.202 255.656 398.527C255.918 399.266 256.759 399.773 257.537 400.238C262.046 402.944 265.936 406.455 267.937 410.648C269.937 414.84 269.882 419.78 267.032 423.64C265.984 425.068 264.539 426.761 265.563 428.197C267.151 430.381 272.462 429.127 273.7 431.435C274.089 432.174 273.859 433.012 273.859 433.818C273.859 436.242 276.089 438.392 278.796 439.512C281.503 440.633 284.639 440.899 287.687 441.04C288.497 439.138 288.576 436.983 287.91 435.021C287.707 434.598 287.627 434.122 287.68 433.652C287.907 433.129 288.26 432.677 288.704 432.34C291.958 429.119 291.268 424.387 289.315 420.56C287.362 416.733 284.314 413.238 283.178 409.212C282.615 407.211 282.615 404.961 284.131 403.301C285.001 402.502 285.939 401.788 286.933 401.167C288.709 399.907 290.077 398.112 290.855 396.02C291.768 393.372 291.649 390.209 294.3 388.424C296.848 386.764 300.429 387.246 303.247 386.108C305.414 385.212 307.938 381.766 308.113 379.865Z" fill="#464353"/>
<path d="M462.038 509.943C449.932 504.705 446.376 500.919 446.376 493.34C446.376 487.529 448.821 480.821 459.538 480.821C465.462 480.73 471.281 482.462 476.272 485.802L479.757 476.164C475.716 473.674 470.017 471.357 461.665 471.067V456.954H454.624V471.648C441.819 473.831 434.405 482.996 434.405 495.075C434.405 507.735 441.549 514.434 455.775 520.254C466.079 524.645 471.469 529.593 471.469 537.596C471.469 545.898 464.793 551.858 454.91 551.858C447.122 551.858 438.295 549.094 433.286 545.599L429.943 555.345C434.818 558.989 443.169 561.604 451.234 561.754V576.448H463.213V561.314C477.502 558.823 485.195 548.031 485.195 536.575C485.195 523.624 476.375 516.053 462.038 509.943Z" fill="url(#paint1_linear_1641_19)"/>
<path d="M451.266 573.127V558.433C443.201 558.284 434.849 555.669 429.975 552.024L433.317 542.278C438.326 545.773 447.154 548.538 454.941 548.538C464.825 548.538 471.469 542.577 471.469 534.275C471.469 526.273 466.047 521.325 455.743 516.958C441.549 511.147 434.373 504.439 434.373 491.779C434.373 479.701 441.788 470.536 454.592 468.352V453.658H461.634V467.771C469.985 468.062 475.685 470.386 479.725 472.868L476.24 482.465C471.25 479.125 465.43 477.393 459.506 477.484C448.789 477.484 446.344 484.183 446.344 490.003C446.344 497.566 449.901 501.351 462.007 506.606C476.343 512.716 485.163 520.287 485.163 533.238C485.163 544.736 477.51 555.503 463.182 557.977V573.127H451.266Z" fill="#5DB075"/>
</g>
<defs>
<linearGradient id="paint0_linear_1641_19" x1="242.764" y1="352.869" x2="242.764" y2="194.391" gradientUnits="userSpaceOnUse">
<stop stop-color="#808080" stop-opacity="0.25"/>
<stop offset="0.54" stop-color="#808080" stop-opacity="0.12"/>
<stop offset="1" stop-color="#808080" stop-opacity="0.1"/>
</linearGradient>
<linearGradient id="paint1_linear_1641_19" x1="429.975" y1="516.709" x2="485.195" y2="516.709" gradientUnits="userSpaceOnUse">
<stop stop-color="#808080" stop-opacity="0.25"/>
<stop offset="0.54" stop-color="#808080" stop-opacity="0.12"/>
<stop offset="1" stop-color="#808080" stop-opacity="0.1"/>
</linearGradient>
<clipPath id="clip0_1641_19">
<rect width="935" height="602" fill="white"/>
</clipPath>
</defs>
</svg>
