<svg width="90" height="37" viewBox="0 0 90 37" fill="none" xmlns="http://www.w3.org/2000/svg">
<path d="M0.835227 36V1.09091H22.7216V5.625H6.10227V16.2614H21.5795V20.7784H6.10227V31.4659H22.9261V36H0.835227Z" fill="#343BEA"/>
<path d="M48.7969 10.2614C48.6151 8.64773 47.8651 7.39773 46.5469 6.51136C45.2287 5.61364 43.5696 5.16477 41.5696 5.16477C40.1378 5.16477 38.8991 5.39205 37.8537 5.84659C36.8082 6.28977 35.9957 6.90341 35.4162 7.6875C34.848 8.46023 34.5639 9.34091 34.5639 10.3295C34.5639 11.1591 34.7571 11.875 35.1435 12.4773C35.5412 13.0795 36.0582 13.5852 36.6946 13.9943C37.3423 14.392 38.0355 14.7273 38.7741 15C39.5128 15.2614 40.223 15.4773 40.9048 15.6477L44.3139 16.5341C45.4276 16.8068 46.5696 17.1761 47.7401 17.642C48.9105 18.108 49.9957 18.7216 50.9957 19.483C51.9957 20.2443 52.8026 21.1875 53.4162 22.3125C54.0412 23.4375 54.3537 24.7841 54.3537 26.3523C54.3537 28.3295 53.8423 30.0852 52.8196 31.6193C51.8082 33.1534 50.3366 34.3636 48.4048 35.25C46.4844 36.1364 44.1605 36.5795 41.4332 36.5795C38.8196 36.5795 36.5582 36.1648 34.6491 35.3352C32.7401 34.5057 31.2457 33.3295 30.1662 31.8068C29.0866 30.2727 28.4901 28.4545 28.3764 26.3523H33.6605C33.7628 27.6136 34.1719 28.6648 34.8878 29.5057C35.6151 30.3352 36.5412 30.9545 37.6662 31.3636C38.8026 31.7614 40.0469 31.9602 41.3991 31.9602C42.8878 31.9602 44.2116 31.7273 45.3707 31.2614C46.5412 30.7841 47.4616 30.125 48.1321 29.2841C48.8026 28.4318 49.1378 27.4375 49.1378 26.3011C49.1378 25.267 48.8423 24.4205 48.2514 23.7614C47.6719 23.1023 46.8821 22.5568 45.8821 22.125C44.8935 21.6932 43.7741 21.3125 42.5241 20.983L38.3991 19.858C35.6037 19.0966 33.3878 17.9773 31.7514 16.5C30.1264 15.0227 29.3139 13.0682 29.3139 10.6364C29.3139 8.625 29.8594 6.86932 30.9503 5.36932C32.0412 3.86932 33.5185 2.70454 35.3821 1.875C37.2457 1.03409 39.348 0.613635 41.6889 0.613635C44.0526 0.613635 46.1378 1.02841 47.9446 1.85795C49.7628 2.6875 51.1946 3.82955 52.2401 5.28409C53.2855 6.72727 53.831 8.38636 53.8764 10.2614H48.7969Z" fill="#5DB075"/>
<path d="M84.2727 12.1193C83.9432 11.0852 83.5 10.1591 82.9432 9.34091C82.3977 8.51136 81.7443 7.80682 80.983 7.22727C80.2216 6.63636 79.3523 6.1875 78.375 5.88068C77.4091 5.57386 76.3466 5.42045 75.1875 5.42045C73.2216 5.42045 71.4489 5.92614 69.8693 6.9375C68.2898 7.94886 67.0398 9.43182 66.1193 11.3864C65.2102 13.3295 64.7557 15.7102 64.7557 18.5284C64.7557 21.358 65.2159 23.75 66.1364 25.7045C67.0568 27.6591 68.3182 29.142 69.9205 30.1534C71.5227 31.1648 73.3466 31.6705 75.392 31.6705C77.2898 31.6705 78.9432 31.2841 80.3523 30.5114C81.7727 29.7386 82.8693 28.6477 83.642 27.2386C84.4261 25.8182 84.8182 24.1477 84.8182 22.2273L86.1818 22.483H76.1932V18.1364H89.9148V22.108C89.9148 25.0398 89.2898 27.5852 88.0398 29.7443C86.8011 31.892 85.0852 33.5511 82.892 34.7216C80.7102 35.892 78.2102 36.4773 75.392 36.4773C72.233 36.4773 69.4602 35.75 67.0739 34.2955C64.6989 32.8409 62.8466 30.7784 61.517 28.108C60.1875 25.4261 59.5227 22.2443 59.5227 18.5625C59.5227 15.7784 59.9091 13.2784 60.6818 11.0625C61.4545 8.84659 62.5398 6.96591 63.9375 5.42045C65.3466 3.86364 67 2.67614 68.8977 1.85795C70.8068 1.02841 72.892 0.613635 75.1534 0.613635C77.0398 0.613635 78.7955 0.892044 80.4205 1.44886C82.0568 2.00568 83.5114 2.79545 84.7841 3.81818C86.0682 4.84091 87.1307 6.05682 87.9716 7.46591C88.8125 8.86364 89.3807 10.4148 89.6761 12.1193H84.2727Z" fill="#D3ED35"/>
</svg>
