<svg width="44" height="37" viewBox="0 0 44 37" fill="none" xmlns="http://www.w3.org/2000/svg">
<path d="M10.7195 29.4461C6.72201 26.6078 3.55867 22.9158 1.77117 20.5845C1.27133 19.9409 1 19.1492 1 18.3344C1 17.5195 1.27133 16.7278 1.77117 16.0843C5.00601 11.8615 12.767 3.16663 21.828 3.16663C25.8927 3.16663 29.693 4.91513 32.943 7.22696" stroke="#4ECB71" stroke-width="2" stroke-linecap="round" stroke-linejoin="round"/>
<path d="M17.4946 32.8587C18.9012 33.2774 20.3604 33.4933 21.828 33.5C30.889 33.5 38.65 24.8052 41.8848 20.5823C42.3845 19.9382 42.6555 19.146 42.6551 18.3308C42.6548 17.5156 42.383 16.7236 41.8826 16.08C40.7458 14.5969 39.5262 13.1791 38.2296 11.8333M26.443 13.7552C25.8413 13.1434 25.1244 12.6569 24.3337 12.3236C23.5431 11.9903 22.6942 11.8169 21.8362 11.8133C20.9781 11.8097 20.1279 11.976 19.3345 12.3027C18.541 12.6293 17.8201 13.1098 17.2133 13.7165C16.6065 14.3232 16.1258 15.044 15.799 15.8373C15.4721 16.6307 15.3056 17.4809 15.309 18.3389C15.3124 19.197 15.4856 20.0458 15.8187 20.8366C16.1518 21.6273 16.6382 22.3443 17.2498 22.9462L26.443 13.7552ZM4.49463 35.6667L39.1613 1L4.49463 35.6667Z" stroke="#4ECB71" stroke-width="2" stroke-linecap="round" stroke-linejoin="round"/>
</svg>
